G04 DipTrace 2.4.0.2*
%INBoardOutline.gbr*%
%MOIN*%
%ADD11C,0.0055*%
%FSLAX44Y44*%
G04*
G70*
G90*
G75*
G01*
%LNBoardOutline*%
%LPD*%
X6904Y28887D2*
D11*
X14654D1*
Y29137D1*
X15279D1*
Y29637D1*
X15654D1*
Y30262D1*
X16029D1*
Y30887D1*
X16404D1*
Y31262D1*
X16904D1*
Y31637D1*
X17279D1*
Y32262D1*
X17654D1*
Y32887D1*
X18029D1*
Y34137D1*
X18404D1*
Y36262D1*
X17904D1*
Y34512D1*
X17154D1*
Y35012D1*
X17279D1*
Y36762D1*
X17654D1*
Y37262D1*
X18279D1*
Y37637D1*
X19279D1*
Y39262D1*
X19654D1*
Y39637D1*
X21029D1*
Y38762D1*
X21279D1*
Y38512D1*
X21029D1*
Y38137D1*
X20404D1*
Y36012D1*
X20904D1*
Y36387D1*
X21279D1*
Y36887D1*
X21654D1*
Y37137D1*
X22404D1*
Y36387D1*
X22029D1*
Y36012D1*
X21654D1*
Y35637D1*
X21279D1*
Y35387D1*
X20904D1*
Y35012D1*
X20029D1*
Y34262D1*
X20404D1*
Y33762D1*
X21279D1*
Y33387D1*
X21654D1*
Y32887D1*
X22029D1*
Y32512D1*
X22404D1*
Y31762D1*
X22029D1*
Y31387D1*
X21654D1*
Y31012D1*
X21279D1*
Y30137D1*
X20904D1*
Y28887D1*
X27029D1*
Y32012D1*
X27904D1*
Y32387D1*
X28654D1*
Y32762D1*
X29154D1*
Y33262D1*
X27779D1*
Y33637D1*
X27029D1*
Y34387D1*
X27779D1*
Y34887D1*
X28654D1*
Y35637D1*
X29529D1*
Y34887D1*
X30279D1*
Y34137D1*
X31154D1*
Y34387D1*
X31904D1*
Y34887D1*
X32779D1*
Y32887D1*
X31904D1*
Y33262D1*
X30654D1*
Y32762D1*
X31154D1*
Y32387D1*
X32029D1*
Y32012D1*
X32779D1*
Y28887D1*
X41654D1*
X42154Y28387D1*
Y11637D1*
X37279D1*
Y5887D1*
X36779Y5387D1*
X11779D1*
X11279Y5887D1*
Y11387D1*
X6404D1*
Y28387D1*
X6904Y28887D1*
X16279D2*
Y29012D1*
Y29637D1*
X16779D1*
Y30137D1*
X17279D1*
Y30512D1*
X17654D1*
Y31012D1*
X17904D1*
Y31387D1*
X18279D1*
Y31637D1*
X18779D1*
Y32262D1*
X19279D1*
Y32637D1*
X20154D1*
Y32262D1*
X20904D1*
Y31637D1*
X20404D1*
Y30512D1*
X20029D1*
Y30137D1*
X19654D1*
Y29637D1*
X20029D1*
Y28887D1*
X16279D1*
M02*
