G04 DipTrace 2.4.0.2*
%INBottomSilk.gbr*%
%MOIN*%
%ADD15C,0.025*%
%ADD18C,0.01*%
%FSLAX44Y44*%
G04*
G70*
G90*
G75*
G01*
%LNBotSilk*%
%LPD*%
G36*
X17154Y35012D2*
X17279D1*
Y36762D1*
X17654D1*
Y37262D1*
X18279D1*
Y37637D1*
X19279D1*
Y38137D1*
X19529D1*
Y38887D1*
X20029D1*
Y39387D1*
X21029D1*
Y38762D1*
X21279D1*
Y38512D1*
X21029D1*
Y38137D1*
X20404D1*
Y37512D1*
X20029D1*
Y36887D1*
X19654D1*
Y36262D1*
X17904D1*
Y34512D1*
X17154D1*
D1*
Y35012D1*
G37*
G36*
X20404Y36012D2*
Y35012D1*
X20904D1*
Y35387D1*
X21279D1*
Y35637D1*
X21654D1*
Y36012D1*
X22029D1*
Y36387D1*
X22404D1*
Y37137D1*
X21654D1*
Y36887D1*
X21279D1*
Y36387D1*
X20904D1*
Y36012D1*
D1*
X20404D1*
G37*
X20029Y28887D2*
D18*
X20404D1*
Y28262D1*
X20904D1*
Y28887D1*
X14654D2*
Y27137D1*
X15154D1*
Y28012D1*
X15654D1*
Y28887D1*
X15904D1*
Y29262D1*
X16279D1*
G36*
X28654Y35637D2*
X29529D1*
Y34887D1*
X28654D1*
Y35637D1*
G37*
G36*
X27029Y34387D2*
X28654D1*
Y34012D1*
X31904D1*
Y33637D1*
X27029D1*
D1*
Y34387D1*
G37*
G36*
X27904Y32387D2*
X28654D1*
Y32012D1*
X27904D1*
Y32387D1*
G37*
G36*
X29404D2*
X30279D1*
Y32012D1*
X29404D1*
Y32387D1*
G37*
G36*
X31279D2*
X32029D1*
Y32012D1*
X31279D1*
Y32387D1*
G37*
X27029Y28887D2*
D18*
X27779D1*
Y28387D1*
X28654D1*
Y27637D1*
X29404D1*
Y27137D1*
X30404D1*
Y27637D1*
X31154D1*
Y28387D1*
X32029D1*
Y28887D1*
X32779D1*
G36*
X28779Y28762D2*
Y27762D1*
X31029D1*
Y28762D1*
X30404D1*
Y28387D1*
X29404D1*
Y28762D1*
D1*
X28779D1*
G37*
G36*
X27029Y31637D2*
X27779D1*
Y30887D1*
X27029D1*
Y31637D1*
G37*
G36*
Y30012D2*
X27779D1*
Y29262D1*
X27029D1*
Y30012D1*
G37*
G36*
X31904Y31637D2*
X32654D1*
Y31262D1*
X31904D1*
Y31637D1*
G37*
G36*
Y30762D2*
X32654D1*
Y30387D1*
X31904D1*
Y30762D1*
G37*
G36*
Y30012D2*
X32654D1*
Y29637D1*
X31904D1*
Y30012D1*
G37*
X18029Y26887D2*
D15*
X30654D1*
Y24512D1*
X18029D1*
Y26887D1*
X36404D2*
X42154D1*
Y24512D1*
X36404D1*
Y26887D1*
G36*
X37029Y26137D2*
X41529D1*
Y25262D1*
X37029D1*
Y26137D1*
G37*
X12279Y26887D2*
D15*
X18029D1*
Y24512D1*
X12279D1*
Y26887D1*
X6529D2*
X12279D1*
Y24512D1*
X6529D1*
Y26887D1*
G36*
X7154Y26137D2*
X11654D1*
Y25262D1*
X7154D1*
Y26137D1*
G37*
X30654Y26887D2*
D15*
X36404D1*
Y24512D1*
X30654D1*
Y26887D1*
G36*
X31279Y26137D2*
X35779D1*
Y25262D1*
X31279D1*
Y26137D1*
G37*
G36*
X12904D2*
X17404D1*
Y25262D1*
X12904D1*
Y26137D1*
G37*
M02*
