G04 DipTrace 2.4.0.2*
%INBottom.gbr*%
%MOIN*%
%ADD13C,0.012*%
%ADD14C,0.04*%
%ADD15C,0.025*%
%ADD16C,0.02*%
%ADD19C,0.068*%
%ADD20R,0.06X0.32*%
%ADD21R,0.0591X0.0591*%
%ADD22C,0.0591*%
%FSLAX44Y44*%
G04*
G70*
G90*
G75*
G01*
%LNBottom*%
%LPD*%
X9654Y12512D2*
D13*
Y12137D1*
X10029Y11762D1*
X12279D1*
X12779Y11262D1*
X17654D1*
X18279Y11887D1*
X21279D1*
X21404Y12012D1*
X26654D1*
X26904Y12262D1*
X29029D1*
X29154Y12137D1*
X29654D1*
X29904Y11887D1*
X34029D1*
X34154Y12012D1*
X34529D1*
X35404Y17137D2*
X22779D1*
X22529Y16887D1*
X18779D1*
X18529Y17137D1*
X14029D1*
X13779Y17387D1*
X11029D1*
X10654Y17012D1*
Y16387D1*
X34279Y19637D2*
X31029D1*
X30779Y19387D1*
X18154D1*
X14279Y9762D2*
X14654D1*
X14904Y9512D1*
X19279D1*
X19529Y9762D1*
X33029D1*
X33654Y10387D1*
X34654Y11262D2*
X33279D1*
X33404Y20012D2*
X31029D1*
X30654Y19637D1*
X19779D1*
X19654Y19762D1*
X19154D1*
X32404Y19262D2*
X31029D1*
X30904Y19137D1*
X21404D1*
X21154Y18887D1*
Y18387D1*
X16279Y10262D2*
X17654D1*
X18082Y10690D1*
X18707D1*
X19654Y11637D1*
X21654D1*
X31404Y18887D2*
X22279D1*
X22154Y18762D1*
Y18387D1*
X23279Y10387D2*
X31904D1*
X30404Y20012D2*
X29654D1*
X29529Y19887D1*
X23404D1*
X23154Y20137D1*
X19279Y10637D2*
X19654Y11012D1*
X21779D1*
X22029Y11262D1*
X22529D1*
X22779Y11512D1*
X27029D1*
X27279Y11762D1*
X28779D1*
X29029Y11512D1*
X29279D1*
X29779Y11012D1*
X30779D1*
X22279Y11637D2*
X22529D1*
X22654Y11762D1*
X26779D1*
X27029Y12012D1*
X28904D1*
X29154Y11762D1*
X29529D1*
X29779Y11512D1*
X20154Y22637D2*
X25779D1*
X26279Y22137D1*
X29654D1*
X30404Y21387D1*
Y21371D1*
X22279Y10637D2*
X22654D1*
X23029Y11012D1*
X27279D1*
X27529Y11262D1*
X28029D1*
X28654Y10637D1*
X31154D1*
X31529Y11012D1*
X19154Y22637D2*
X19529Y23012D1*
X25779D1*
X26404Y22387D1*
X30404D1*
X31404Y21387D1*
Y21371D1*
X32904Y10387D2*
X32529Y10012D1*
X19404D1*
X19279Y9887D1*
X18279D1*
X13654Y12012D2*
X13154D1*
X12279Y12887D1*
X8029D1*
X10154Y12512D2*
X12154D1*
X13029Y11637D1*
X17279D1*
X21279Y10637D2*
X21779D1*
X22154Y11012D1*
X22654D1*
X22904Y11262D1*
X27154D1*
X27404Y11512D1*
X28404D1*
X28904Y11012D1*
X28404Y17887D2*
X27779D1*
X27529Y17637D1*
X22529D1*
X22279Y17387D1*
X19029D1*
X18779Y17637D1*
X18029D1*
X17904Y17762D1*
X14529D1*
X14404Y17887D1*
X13904D1*
X13779Y17762D1*
X11779D1*
X11654Y17887D1*
Y18387D1*
X14779Y10137D2*
X15154Y9762D1*
X17529D1*
X18029Y10262D1*
X22654D1*
X23154Y10762D1*
X27404D1*
X27529Y10887D1*
X27779D1*
X13529Y22387D2*
X14029D1*
X14154Y22262D1*
X25779D1*
X26154Y21887D1*
X28904D1*
X29419Y21371D1*
X29404D1*
X14154Y17512D2*
X17529D1*
X17654Y17387D1*
X18654D1*
X18904Y17137D1*
X22404D1*
X22654Y17387D1*
X27654D1*
X27779Y17512D1*
X28904D1*
X13654Y16387D2*
X14154Y15887D1*
X14904D1*
X15529Y16512D1*
X17154D1*
X18904Y14762D1*
X26279D1*
X26904Y15387D1*
X27404D1*
X33279Y10762D2*
X34654D1*
X35154Y11262D1*
Y11637D1*
X32279Y12887D2*
X35404D1*
X36404Y13887D1*
X37404D1*
X37654Y14137D1*
X38029D1*
X38404Y13762D1*
X31154Y13012D2*
X31779Y13637D1*
X35779D1*
X36279Y14137D1*
X37029D1*
X37279Y14387D1*
X38904D1*
X39404Y13887D1*
X30279Y11512D2*
X32904D1*
X33029Y11637D1*
X34654D1*
X35029Y12012D1*
X35654D1*
X36779Y13137D1*
X39529D1*
X39904Y13512D1*
X29279Y12512D2*
X29779D1*
X30154Y12137D1*
X33904D1*
X34154Y12387D1*
X35654D1*
X36654Y13387D1*
X38529D1*
X38654Y13512D1*
X38904D1*
X28654Y12887D2*
X29779D1*
X30279Y12387D1*
X33779D1*
X34029Y12637D1*
X35529D1*
X36529Y13637D1*
X37529D1*
X37654Y13762D1*
X37904D1*
X27779Y12887D2*
X28154Y13262D1*
X29779D1*
X30404Y12637D1*
X31529D1*
X32154Y13262D1*
X34904D1*
X15654Y12638D2*
Y13387D1*
X16154Y13887D1*
X14654Y15262D2*
X10154D1*
X9654Y15762D1*
Y16387D1*
X20279Y7137D2*
D14*
Y9137D1*
X20529Y9387D1*
X21279D1*
X22279D1*
X23279D1*
X24279D1*
X25279D1*
X26279D1*
X27029D1*
X27279Y9137D1*
Y7137D1*
X26279D2*
D15*
Y9387D1*
X25279Y7137D2*
Y9387D1*
X24279Y7137D2*
Y9387D1*
X23279Y7137D2*
Y9387D1*
X22279Y7137D2*
Y9387D1*
X21279Y7137D2*
Y9387D1*
X25904Y21387D2*
Y21636D1*
X25591Y21950D1*
X18716D1*
X18154Y21387D1*
X16904D1*
Y20387D1*
X16779D1*
X16154Y19762D1*
Y18887D1*
X16904Y21387D2*
X16404D1*
X15904Y21887D1*
X13154D1*
X12529Y22512D1*
X9279D1*
X8654Y21887D1*
Y21387D1*
X7904D1*
X7404Y20887D1*
Y20387D1*
X12654Y16387D2*
D13*
X12029Y15762D1*
X10404D1*
X10154Y16012D1*
Y16637D1*
X9904Y16887D1*
X9154D1*
X8654Y16387D1*
X13154Y17012D2*
X13779D1*
X13904Y16887D1*
X18404D1*
X18654Y16637D1*
Y16012D1*
X19154Y15512D1*
X22779D1*
X23154Y15887D1*
Y16387D1*
X19154Y17762D2*
X22279D1*
X22404Y17887D1*
X22904D1*
X23154Y18137D1*
Y18387D1*
Y14387D2*
X18904D1*
X17904Y15387D1*
X15279D1*
X9654Y21387D2*
X10654D1*
Y21762D1*
X10904Y22012D1*
X12404D1*
X12654Y21762D1*
Y21387D1*
X16154Y20887D2*
X15154D1*
X14904Y20637D1*
X12904D1*
X12654Y20887D1*
Y21387D1*
X20154Y15137D2*
X23904D1*
X25404Y16637D1*
X33154D1*
X33404Y16387D1*
X34279D1*
X34654Y16762D1*
X14279Y7137D2*
Y9137D1*
X14404Y9262D1*
X19654D1*
X18654Y11512D2*
X18279D1*
X17654Y10887D1*
X13654D1*
X13279Y10512D1*
Y7137D1*
X19154Y16387D2*
X19779Y15762D1*
X22279D1*
X22654Y16137D1*
Y16637D1*
X22904Y16887D1*
X33279D1*
X33404Y16762D1*
X33904D1*
D14*
X9654Y12512D3*
X34529Y12012D3*
X12279Y11762D3*
X35404Y17137D3*
X34279Y19637D3*
X18154Y19387D3*
X14279Y9762D3*
X33654Y10387D3*
X34654Y11262D3*
X33279D3*
X33404Y20012D3*
X19154Y19762D3*
X32404Y19262D3*
X16279Y10262D3*
X21654Y11637D3*
X31404Y18887D3*
X23279Y10387D3*
X31904D3*
X30404Y20012D3*
X23154Y20137D3*
X19279Y10637D3*
X30779Y11012D3*
X22279Y11637D3*
X29779Y11512D3*
X20154Y22637D3*
X22279Y10637D3*
X31529Y11012D3*
X19154Y22637D3*
X32904Y10387D3*
X18279Y9887D3*
X13654Y12012D3*
X8029Y12887D3*
X10154Y12512D3*
X17279Y11637D3*
X21279Y10637D3*
X28904Y11012D3*
X28404Y17887D3*
X14779Y10137D3*
X27779Y10887D3*
X13529Y22387D3*
X14154Y17512D3*
X28904D3*
X33279Y10762D3*
X35154Y11637D3*
X32279Y12887D3*
X38404Y13762D3*
X31154Y13012D3*
X39404Y13887D3*
X30279Y11512D3*
X39904Y13512D3*
X29279Y12512D3*
X38904Y13512D3*
X28654Y12887D3*
X37904Y13762D3*
X27779Y12887D3*
X34904Y13262D3*
X14654Y15262D3*
X26279Y9387D3*
X13154Y17012D3*
X19154Y17762D3*
X23154Y14387D3*
X15279Y15387D3*
X20154Y15137D3*
X34654Y16762D3*
X19654Y9262D3*
X18654Y11512D3*
X33904Y16762D3*
X25404Y15387D3*
X7404Y22262D3*
X25404Y13387D3*
X35904Y10887D3*
X20904Y20387D3*
X13904Y19887D3*
X38904Y12387D3*
X36904D3*
X17904Y20387D3*
X7404Y17387D3*
X13404Y14387D3*
X40904Y12387D3*
X40404Y22887D3*
X6804Y23513D2*
D15*
X41756D1*
X6804Y23265D2*
X19298D1*
X26009D2*
X41756D1*
X6804Y23016D2*
X18861D1*
X26259D2*
X41756D1*
X6804Y22767D2*
X8959D1*
X12848D2*
X13236D1*
X13821D2*
X18681D1*
X26509D2*
X41756D1*
X6804Y22519D2*
X8709D1*
X30755D2*
X41756D1*
X6804Y22270D2*
X8459D1*
X31005D2*
X41756D1*
X6804Y22021D2*
X8263D1*
X31255D2*
X41756D1*
X6804Y21773D2*
X7822D1*
X31821D2*
X31985D1*
X32821D2*
X32985D1*
X33821D2*
X33985D1*
X34821D2*
X34985D1*
X35821D2*
X35985D1*
X36821D2*
X36985D1*
X37821D2*
X37985D1*
X38821D2*
X38985D1*
X39821D2*
X39985D1*
X40821D2*
X41756D1*
X6804Y21524D2*
X7463D1*
X24723D2*
X25291D1*
X26520D2*
X26841D1*
X40966D2*
X41756D1*
X6804Y21275D2*
X7216D1*
X24727D2*
X25287D1*
X26524D2*
X26826D1*
X40981D2*
X41756D1*
X6804Y21026D2*
X7013D1*
X24606D2*
X25392D1*
X26415D2*
X26939D1*
X40868D2*
X41756D1*
X7891Y20778D2*
X12322D1*
X17391D2*
X25416D1*
X26391D2*
X41756D1*
X8016Y20529D2*
X12529D1*
X15278D2*
X15642D1*
X17516D2*
X22881D1*
X23427D2*
X25291D1*
X26516D2*
X41756D1*
X8024Y20280D2*
X16095D1*
X17524D2*
X22685D1*
X23622D2*
X25283D1*
X26524D2*
X29447D1*
X33809D2*
X41756D1*
X7919Y20032D2*
X15845D1*
X17419D2*
X18752D1*
X19860D2*
X22677D1*
X34548D2*
X41756D1*
X7884Y19783D2*
X15740D1*
X17384D2*
X17884D1*
X18423D2*
X18666D1*
X34743D2*
X41756D1*
X8013Y19534D2*
X15740D1*
X17513D2*
X17689D1*
X34759D2*
X41756D1*
X8024Y19286D2*
X15673D1*
X17524D2*
X17673D1*
X32891D2*
X33951D1*
X34606D2*
X41756D1*
X7923Y19037D2*
X15545D1*
X17423D2*
X17822D1*
X32837D2*
X41756D1*
X6804Y18788D2*
X7291D1*
X7510D2*
X8068D1*
X10071D2*
X10235D1*
X11071D2*
X11235D1*
X12071D2*
X12235D1*
X13071D2*
X13235D1*
X14071D2*
X14235D1*
X15071D2*
X15533D1*
X17011D2*
X17568D1*
X31884D2*
X41756D1*
X6804Y18540D2*
X8068D1*
X15216D2*
X15634D1*
X16673D2*
X17568D1*
X24716D2*
X31068D1*
X31739D2*
X41756D1*
X6804Y18291D2*
X8068D1*
X15231D2*
X16025D1*
X16279D2*
X17568D1*
X24731D2*
X28150D1*
X28657D2*
X41756D1*
X6804Y18042D2*
X8068D1*
X24618D2*
X27451D1*
X28868D2*
X41756D1*
X6804Y17794D2*
X11318D1*
X29298D2*
X41756D1*
X6804Y17545D2*
X10701D1*
X29391D2*
X35154D1*
X35653D2*
X41756D1*
X6804Y17296D2*
X10455D1*
X35864D2*
X41756D1*
X6804Y17047D2*
X8830D1*
X35884D2*
X41756D1*
X6804Y16799D2*
X8248D1*
X35747D2*
X41756D1*
X6804Y16550D2*
X8091D1*
X35091D2*
X41756D1*
X6804Y16301D2*
X8076D1*
X25552D2*
X33006D1*
X34739D2*
X41756D1*
X6804Y16053D2*
X8177D1*
X25306D2*
X41756D1*
X6804Y15804D2*
X6939D1*
X7868D2*
X9302D1*
X25056D2*
X26818D1*
X28802D2*
X29006D1*
X29802D2*
X30006D1*
X30802D2*
X31006D1*
X31802D2*
X32006D1*
X32802D2*
X33006D1*
X33802D2*
X34006D1*
X34802D2*
X35006D1*
X35802D2*
X36006D1*
X36802D2*
X37006D1*
X37802D2*
X38006D1*
X38802D2*
X39006D1*
X39802D2*
X40006D1*
X40802D2*
X41756D1*
X8009Y15555D2*
X9377D1*
X24806D2*
X26588D1*
X40962D2*
X41756D1*
X8028Y15307D2*
X9623D1*
X24559D2*
X26338D1*
X40981D2*
X41756D1*
X7934Y15058D2*
X9873D1*
X15634D2*
X16298D1*
X17509D2*
X17748D1*
X40884D2*
X41756D1*
X6804Y14809D2*
X6943D1*
X7860D2*
X14525D1*
X14786D2*
X16279D1*
X17528D2*
X17998D1*
X26809D2*
X41756D1*
X8009Y14561D2*
X16369D1*
X17438D2*
X18244D1*
X26563D2*
X36966D1*
X39216D2*
X41756D1*
X8028Y14312D2*
X15697D1*
X17114D2*
X18494D1*
X23638D2*
X35970D1*
X39618D2*
X41756D1*
X7938Y14063D2*
X15548D1*
X16759D2*
X18853D1*
X23513D2*
X35720D1*
X39860D2*
X41756D1*
X6804Y13815D2*
X7181D1*
X7622D2*
X8068D1*
X10040D2*
X10267D1*
X11040D2*
X11267D1*
X12040D2*
X12267D1*
X13040D2*
X13267D1*
X14040D2*
X14267D1*
X15040D2*
X15529D1*
X16778D2*
X17568D1*
X19540D2*
X19767D1*
X20540D2*
X20767D1*
X21540D2*
X21767D1*
X22540D2*
X22767D1*
X23540D2*
X23767D1*
X24540D2*
X31470D1*
X40282D2*
X41756D1*
X6804Y13566D2*
X8068D1*
X15208D2*
X15354D1*
X16692D2*
X17568D1*
X24708D2*
X28013D1*
X29919D2*
X31224D1*
X40391D2*
X41756D1*
X6804Y13317D2*
X7826D1*
X16380D2*
X17568D1*
X24735D2*
X27576D1*
X30208D2*
X30779D1*
X40352D2*
X41756D1*
X6804Y13068D2*
X7576D1*
X17102D2*
X17568D1*
X24638D2*
X27326D1*
X30458D2*
X30666D1*
X40067D2*
X41756D1*
X6804Y12820D2*
X7545D1*
X12829D2*
X15052D1*
X17255D2*
X27295D1*
X39622D2*
X41756D1*
X6804Y12571D2*
X7662D1*
X13079D2*
X15029D1*
X17278D2*
X26779D1*
X36696D2*
X41756D1*
X6804Y12322D2*
X9205D1*
X14024D2*
X15111D1*
X17196D2*
X21283D1*
X36450D2*
X41756D1*
X6804Y12074D2*
X9310D1*
X14138D2*
X15412D1*
X15895D2*
X16408D1*
X16899D2*
X17095D1*
X17462D2*
X17982D1*
X36200D2*
X41756D1*
X35950Y11825D2*
X36756D1*
X35638Y11576D2*
X36756D1*
X35524Y11328D2*
X36756D1*
X35446Y11079D2*
X36756D1*
X35208Y10830D2*
X36756D1*
X34958Y10582D2*
X36756D1*
X34141Y10333D2*
X36756D1*
X34032Y10084D2*
X36756D1*
X33587Y9836D2*
X36756D1*
X33337Y9587D2*
X36756D1*
X28927Y9338D2*
X36756D1*
X28927Y9089D2*
X36756D1*
X26508Y20362D2*
X26490Y20239D1*
X26483Y20212D1*
X29392D1*
X29520Y20308D1*
X29633Y20336D1*
X30072Y20337D1*
X30111Y20374D1*
X30218Y20438D1*
X30338Y20472D1*
X30462Y20473D1*
X30583Y20441D1*
X30690Y20378D1*
X30777Y20289D1*
X30802Y20244D1*
X30888Y20305D1*
X31029Y20337D1*
X33072D1*
X33111Y20374D1*
X33218Y20438D1*
X33338Y20472D1*
X33462Y20473D1*
X33583Y20441D1*
X33690Y20378D1*
X33777Y20289D1*
X33837Y20179D1*
X33868Y20012D1*
X33862Y19962D1*
X33947D1*
X33986Y19999D1*
X34093Y20063D1*
X34213Y20097D1*
X34337Y20098D1*
X34458Y20066D1*
X34565Y20003D1*
X34652Y19914D1*
X34712Y19804D1*
X34743Y19637D1*
X34727Y19514D1*
X34678Y19399D1*
X34600Y19301D1*
X34500Y19228D1*
X34383Y19184D1*
X34259Y19173D1*
X34136Y19194D1*
X34024Y19248D1*
X33950Y19312D1*
X32866Y19308D1*
X32852Y19139D1*
X32803Y19024D1*
X32725Y18926D1*
X32625Y18853D1*
X32508Y18809D1*
X32384Y18798D1*
X32261Y18819D1*
X32149Y18873D1*
X32075Y18937D1*
X31866Y18933D1*
X31852Y18764D1*
X31803Y18649D1*
X31725Y18551D1*
X31625Y18478D1*
X31508Y18434D1*
X31384Y18423D1*
X31261Y18444D1*
X31149Y18498D1*
X31075Y18562D1*
X24689D1*
X24712Y18432D1*
X24709Y18312D1*
X24678Y18191D1*
X24622Y18080D1*
X24543Y17984D1*
X24518Y17961D1*
X27392Y17962D1*
X27549Y18117D1*
X27652Y18186D1*
X27779Y18212D1*
X28072D1*
X28111Y18249D1*
X28218Y18313D1*
X28338Y18347D1*
X28462Y18348D1*
X28583Y18316D1*
X28690Y18253D1*
X28777Y18164D1*
X28837Y18054D1*
X28856Y17975D1*
X28962Y17973D1*
X29083Y17941D1*
X29190Y17878D1*
X29277Y17789D1*
X29337Y17679D1*
X29368Y17512D1*
X29362Y17462D1*
X35072D1*
X35111Y17499D1*
X35218Y17563D1*
X35338Y17597D1*
X35462Y17598D1*
X35583Y17566D1*
X35690Y17503D1*
X35777Y17414D1*
X35837Y17304D1*
X35868Y17137D1*
X35852Y17014D1*
X35803Y16899D1*
X35725Y16801D1*
X35625Y16728D1*
X35508Y16684D1*
X35384Y16673D1*
X35261Y16694D1*
X35149Y16748D1*
X35116Y16776D1*
X35102Y16639D1*
X35053Y16524D1*
X34975Y16426D1*
X34875Y16353D1*
X34758Y16309D1*
X34653Y16299D1*
X34508Y16157D1*
X34405Y16088D1*
X34279Y16062D1*
X33404D1*
X33282Y16086D1*
X33174Y16157D1*
X33016Y16315D1*
X31154Y16312D1*
X25540D1*
X24310Y15084D1*
X25779Y15087D1*
X26142D1*
X26674Y15617D1*
X26763Y15680D1*
X26843Y15827D1*
Y15947D1*
X27964D1*
Y15732D1*
X28044Y15817D1*
X28148Y15886D1*
X28265Y15930D1*
X28389Y15947D1*
X28513Y15936D1*
X28632Y15899D1*
X28739Y15835D1*
X28830Y15750D1*
X28904Y15636D1*
X28958Y15727D1*
X29044Y15817D1*
X29148Y15886D1*
X29265Y15930D1*
X29389Y15947D1*
X29513Y15936D1*
X29632Y15899D1*
X29739Y15835D1*
X29830Y15750D1*
X29904Y15636D1*
X29958Y15727D1*
X30044Y15817D1*
X30148Y15886D1*
X30265Y15930D1*
X30389Y15947D1*
X30513Y15936D1*
X30632Y15899D1*
X30739Y15835D1*
X30830Y15750D1*
X30904Y15636D1*
X30958Y15727D1*
X31044Y15817D1*
X31148Y15886D1*
X31265Y15930D1*
X31389Y15947D1*
X31513Y15936D1*
X31632Y15899D1*
X31739Y15835D1*
X31830Y15750D1*
X31904Y15636D1*
X31958Y15727D1*
X32044Y15817D1*
X32148Y15886D1*
X32265Y15930D1*
X32389Y15947D1*
X32513Y15936D1*
X32632Y15899D1*
X32739Y15835D1*
X32830Y15750D1*
X32904Y15636D1*
X32958Y15727D1*
X33044Y15817D1*
X33148Y15886D1*
X33265Y15930D1*
X33389Y15947D1*
X33513Y15936D1*
X33632Y15899D1*
X33739Y15835D1*
X33830Y15750D1*
X33904Y15636D1*
X33958Y15727D1*
X34044Y15817D1*
X34148Y15886D1*
X34265Y15930D1*
X34389Y15947D1*
X34513Y15936D1*
X34632Y15899D1*
X34739Y15835D1*
X34830Y15750D1*
X34904Y15636D1*
X34958Y15727D1*
X35044Y15817D1*
X35148Y15886D1*
X35265Y15930D1*
X35389Y15947D1*
X35513Y15936D1*
X35632Y15899D1*
X35739Y15835D1*
X35830Y15750D1*
X35904Y15636D1*
X35958Y15727D1*
X36044Y15817D1*
X36148Y15886D1*
X36265Y15930D1*
X36389Y15947D1*
X36513Y15936D1*
X36632Y15899D1*
X36739Y15835D1*
X36830Y15750D1*
X36904Y15636D1*
X36958Y15727D1*
X37044Y15817D1*
X37148Y15886D1*
X37265Y15930D1*
X37389Y15947D1*
X37513Y15936D1*
X37632Y15899D1*
X37739Y15835D1*
X37830Y15750D1*
X37904Y15636D1*
X37958Y15727D1*
X38044Y15817D1*
X38148Y15886D1*
X38265Y15930D1*
X38389Y15947D1*
X38513Y15936D1*
X38632Y15899D1*
X38739Y15835D1*
X38830Y15750D1*
X38904Y15636D1*
X38958Y15727D1*
X39044Y15817D1*
X39148Y15886D1*
X39265Y15930D1*
X39389Y15947D1*
X39513Y15936D1*
X39632Y15899D1*
X39739Y15835D1*
X39830Y15750D1*
X39904Y15636D1*
X39943Y15707D1*
X40026Y15800D1*
X40126Y15874D1*
X40241Y15923D1*
X40364Y15946D1*
X40488Y15941D1*
X40609Y15908D1*
X40719Y15850D1*
X40814Y15769D1*
X40888Y15668D1*
X40938Y15554D1*
X40962Y15432D1*
X40959Y15312D1*
X40928Y15191D1*
X40872Y15080D1*
X40793Y14984D1*
X40694Y14908D1*
X40580Y14855D1*
X40458Y14830D1*
X40334Y14831D1*
X40212Y14860D1*
X40101Y14916D1*
X40004Y14994D1*
X39927Y15093D1*
X39904Y15134D1*
X39843Y15039D1*
X39755Y14951D1*
X39650Y14884D1*
X39532Y14842D1*
X39409Y14827D1*
X39284Y14840D1*
X39166Y14880D1*
X39060Y14945D1*
X38970Y15032D1*
X38905Y15133D1*
X38843Y15039D1*
X38755Y14951D1*
X38650Y14884D1*
X38532Y14842D1*
X38409Y14827D1*
X38284Y14840D1*
X38166Y14880D1*
X38060Y14945D1*
X37970Y15032D1*
X37905Y15133D1*
X37843Y15039D1*
X37755Y14951D1*
X37650Y14884D1*
X37532Y14842D1*
X37409Y14827D1*
X37284Y14840D1*
X37166Y14880D1*
X37060Y14945D1*
X36970Y15032D1*
X36905Y15133D1*
X36843Y15039D1*
X36755Y14951D1*
X36650Y14884D1*
X36532Y14842D1*
X36409Y14827D1*
X36284Y14840D1*
X36166Y14880D1*
X36060Y14945D1*
X35970Y15032D1*
X35905Y15133D1*
X35843Y15039D1*
X35755Y14951D1*
X35650Y14884D1*
X35532Y14842D1*
X35409Y14827D1*
X35284Y14840D1*
X35166Y14880D1*
X35060Y14945D1*
X34970Y15032D1*
X34905Y15133D1*
X34843Y15039D1*
X34755Y14951D1*
X34650Y14884D1*
X34532Y14842D1*
X34409Y14827D1*
X34284Y14840D1*
X34166Y14880D1*
X34060Y14945D1*
X33970Y15032D1*
X33905Y15133D1*
X33843Y15039D1*
X33755Y14951D1*
X33650Y14884D1*
X33532Y14842D1*
X33409Y14827D1*
X33284Y14840D1*
X33166Y14880D1*
X33060Y14945D1*
X32970Y15032D1*
X32905Y15133D1*
X32843Y15039D1*
X32755Y14951D1*
X32650Y14884D1*
X32532Y14842D1*
X32409Y14827D1*
X32284Y14840D1*
X32166Y14880D1*
X32060Y14945D1*
X31970Y15032D1*
X31905Y15133D1*
X31843Y15039D1*
X31755Y14951D1*
X31650Y14884D1*
X31532Y14842D1*
X31409Y14827D1*
X31284Y14840D1*
X31166Y14880D1*
X31060Y14945D1*
X30970Y15032D1*
X30905Y15133D1*
X30843Y15039D1*
X30755Y14951D1*
X30650Y14884D1*
X30532Y14842D1*
X30409Y14827D1*
X30284Y14840D1*
X30166Y14880D1*
X30060Y14945D1*
X29970Y15032D1*
X29905Y15133D1*
X29843Y15039D1*
X29755Y14951D1*
X29650Y14884D1*
X29532Y14842D1*
X29409Y14827D1*
X29284Y14840D1*
X29166Y14880D1*
X29060Y14945D1*
X28970Y15032D1*
X28905Y15133D1*
X28843Y15039D1*
X28755Y14951D1*
X28650Y14884D1*
X28532Y14842D1*
X28409Y14827D1*
X28284Y14840D1*
X28166Y14880D1*
X28060Y14945D1*
X27964Y15041D1*
Y14827D1*
X26843D1*
Y14870D1*
X26508Y14532D1*
X26405Y14463D1*
X26279Y14437D1*
X23616Y14433D1*
X23602Y14264D1*
X23553Y14149D1*
X23475Y14051D1*
X23375Y13978D1*
X23262Y13935D1*
X23382Y13899D1*
X23489Y13835D1*
X23580Y13750D1*
X23654Y13636D1*
X23693Y13707D1*
X23776Y13800D1*
X23876Y13874D1*
X23991Y13923D1*
X24114Y13946D1*
X24238Y13941D1*
X24359Y13908D1*
X24469Y13850D1*
X24564Y13769D1*
X24638Y13668D1*
X24688Y13554D1*
X24712Y13432D1*
X24709Y13312D1*
X24678Y13191D1*
X24622Y13080D1*
X24543Y12984D1*
X24444Y12908D1*
X24330Y12855D1*
X24208Y12830D1*
X24084Y12831D1*
X23962Y12860D1*
X23851Y12916D1*
X23754Y12994D1*
X23677Y13093D1*
X23654Y13134D1*
X23593Y13039D1*
X23505Y12951D1*
X23400Y12884D1*
X23282Y12842D1*
X23159Y12827D1*
X23034Y12840D1*
X22916Y12880D1*
X22810Y12945D1*
X22720Y13032D1*
X22655Y13133D1*
X22593Y13039D1*
X22505Y12951D1*
X22400Y12884D1*
X22282Y12842D1*
X22159Y12827D1*
X22034Y12840D1*
X21916Y12880D1*
X21810Y12945D1*
X21720Y13032D1*
X21655Y13133D1*
X21593Y13039D1*
X21505Y12951D1*
X21400Y12884D1*
X21282Y12842D1*
X21159Y12827D1*
X21034Y12840D1*
X20916Y12880D1*
X20810Y12945D1*
X20720Y13032D1*
X20655Y13133D1*
X20593Y13039D1*
X20505Y12951D1*
X20400Y12884D1*
X20282Y12842D1*
X20159Y12827D1*
X20034Y12840D1*
X19916Y12880D1*
X19810Y12945D1*
X19720Y13032D1*
X19655Y13133D1*
X19593Y13039D1*
X19505Y12951D1*
X19400Y12884D1*
X19282Y12842D1*
X19159Y12827D1*
X19034Y12840D1*
X18916Y12880D1*
X18810Y12945D1*
X18714Y13041D1*
Y12827D1*
X17593D1*
Y13947D1*
X18714D1*
Y13732D1*
X18794Y13817D1*
X18898Y13886D1*
X19015Y13930D1*
X19139Y13947D1*
X19263Y13936D1*
X19382Y13899D1*
X19489Y13835D1*
X19580Y13750D1*
X19654Y13636D1*
X19708Y13727D1*
X19794Y13817D1*
X19898Y13886D1*
X20015Y13930D1*
X20139Y13947D1*
X20263Y13936D1*
X20382Y13899D1*
X20489Y13835D1*
X20580Y13750D1*
X20654Y13636D1*
X20708Y13727D1*
X20794Y13817D1*
X20898Y13886D1*
X21015Y13930D1*
X21139Y13947D1*
X21263Y13936D1*
X21382Y13899D1*
X21489Y13835D1*
X21580Y13750D1*
X21654Y13636D1*
X21708Y13727D1*
X21794Y13817D1*
X21898Y13886D1*
X22015Y13930D1*
X22139Y13947D1*
X22263Y13936D1*
X22382Y13899D1*
X22489Y13835D1*
X22580Y13750D1*
X22654Y13636D1*
X22708Y13727D1*
X22794Y13817D1*
X22898Y13886D1*
X23050Y13935D1*
X22899Y13998D1*
X22825Y14062D1*
X18904D1*
X18782Y14086D1*
X18674Y14157D1*
X17771Y15060D1*
X17482Y15061D1*
X17506Y14938D1*
X17503Y14812D1*
X17475Y14691D1*
X17422Y14577D1*
X17348Y14477D1*
X17254Y14395D1*
X17146Y14333D1*
X17027Y14295D1*
X16903Y14282D1*
X16779Y14295D1*
X16660Y14333D1*
X16552Y14394D1*
X16458Y14477D1*
X16383Y14577D1*
X16331Y14690D1*
X16303Y14812D1*
X16300Y14936D1*
X16324Y15063D1*
X15611Y15062D1*
X15500Y14978D1*
X15383Y14934D1*
X15259Y14923D1*
X15136Y14944D1*
X15034Y14993D1*
X14975Y14926D1*
X14875Y14853D1*
X14758Y14809D1*
X14634Y14798D1*
X14511Y14819D1*
X14399Y14873D1*
X14325Y14937D1*
X10154D1*
X10032Y14961D1*
X9924Y15032D1*
X9424Y15532D1*
X9354Y15635D1*
X9329Y15762D1*
Y15930D1*
X9220Y16032D1*
X9155Y16133D1*
X9093Y16039D1*
X9005Y15951D1*
X8900Y15884D1*
X8782Y15842D1*
X8659Y15827D1*
X8534Y15840D1*
X8416Y15880D1*
X8310Y15945D1*
X8220Y16032D1*
X8153Y16136D1*
X8110Y16253D1*
X8093Y16377D1*
X8105Y16501D1*
X8144Y16620D1*
X8208Y16727D1*
X8294Y16817D1*
X8398Y16886D1*
X8515Y16930D1*
X8639Y16947D1*
X8744Y16938D1*
X8924Y17117D1*
X9027Y17186D1*
X9154Y17212D1*
X9904D1*
X10025Y17188D1*
X10133Y17117D1*
X10331Y16919D1*
X10329Y17012D1*
X10352Y17134D1*
X10424Y17242D1*
X10799Y17617D1*
X10902Y17686D1*
X11029Y17712D1*
X11376D1*
X11329Y17866D1*
Y17930D1*
X11220Y18032D1*
X11155Y18133D1*
X11093Y18039D1*
X11005Y17951D1*
X10900Y17884D1*
X10782Y17842D1*
X10659Y17827D1*
X10534Y17840D1*
X10416Y17880D1*
X10310Y17945D1*
X10220Y18032D1*
X10155Y18133D1*
X10093Y18039D1*
X10005Y17951D1*
X9900Y17884D1*
X9782Y17842D1*
X9659Y17827D1*
X9534Y17840D1*
X9416Y17880D1*
X9310Y17945D1*
X9214Y18041D1*
Y17827D1*
X8093D1*
Y18947D1*
X9214D1*
Y18732D1*
X9294Y18817D1*
X9398Y18886D1*
X9515Y18930D1*
X9639Y18947D1*
X9763Y18936D1*
X9882Y18899D1*
X9989Y18835D1*
X10080Y18750D1*
X10154Y18636D1*
X10208Y18727D1*
X10294Y18817D1*
X10398Y18886D1*
X10515Y18930D1*
X10639Y18947D1*
X10763Y18936D1*
X10882Y18899D1*
X10989Y18835D1*
X11080Y18750D1*
X11154Y18636D1*
X11208Y18727D1*
X11294Y18817D1*
X11398Y18886D1*
X11515Y18930D1*
X11639Y18947D1*
X11763Y18936D1*
X11882Y18899D1*
X11989Y18835D1*
X12080Y18750D1*
X12154Y18636D1*
X12208Y18727D1*
X12294Y18817D1*
X12398Y18886D1*
X12515Y18930D1*
X12639Y18947D1*
X12763Y18936D1*
X12882Y18899D1*
X12989Y18835D1*
X13080Y18750D1*
X13154Y18636D1*
X13208Y18727D1*
X13294Y18817D1*
X13398Y18886D1*
X13515Y18930D1*
X13639Y18947D1*
X13763Y18936D1*
X13882Y18899D1*
X13989Y18835D1*
X14080Y18750D1*
X14154Y18636D1*
X14193Y18707D1*
X14276Y18800D1*
X14376Y18874D1*
X14491Y18923D1*
X14614Y18946D1*
X14738Y18941D1*
X14859Y18908D1*
X14969Y18850D1*
X15064Y18769D1*
X15138Y18668D1*
X15188Y18554D1*
X15212Y18432D1*
X15209Y18312D1*
X15178Y18191D1*
X15127Y18087D1*
X17595D1*
X17593Y18947D1*
X18004D1*
X17899Y18998D1*
X17805Y19080D1*
X17736Y19184D1*
X17696Y19302D1*
X17690Y19426D1*
X17717Y19548D1*
X17776Y19658D1*
X17861Y19749D1*
X17968Y19813D1*
X18088Y19847D1*
X18212Y19848D1*
X18333Y19816D1*
X18440Y19753D1*
X18481Y19711D1*
X18689Y19712D1*
X18690Y19801D1*
X18717Y19923D1*
X18776Y20033D1*
X18861Y20124D1*
X18968Y20188D1*
X19088Y20222D1*
X19212Y20223D1*
X19333Y20191D1*
X19440Y20128D1*
X19481Y20086D1*
X19654Y20087D1*
X19775Y20063D1*
X19883Y19992D1*
X19912Y19963D1*
X22720Y19962D1*
X22696Y20052D1*
X22690Y20176D1*
X22717Y20298D1*
X22776Y20408D1*
X22861Y20499D1*
X22968Y20563D1*
X23088Y20597D1*
X23212Y20598D1*
X23333Y20566D1*
X23440Y20503D1*
X23527Y20414D1*
X23587Y20304D1*
X23610Y20210D1*
X25154Y20212D1*
X25324Y20214D1*
X25301Y20337D1*
X25303Y20461D1*
X25331Y20583D1*
X25384Y20696D1*
X25458Y20796D1*
X25551Y20879D1*
X25564Y20887D1*
X25514Y20925D1*
X25427Y21015D1*
X25361Y21121D1*
X25318Y21238D1*
X25300Y21362D1*
X25308Y21486D1*
X25327Y21558D1*
X24689Y21560D1*
X24714Y21387D1*
X24700Y21263D1*
X24659Y21145D1*
X24593Y21039D1*
X24505Y20951D1*
X24400Y20884D1*
X24282Y20842D1*
X24159Y20827D1*
X24034Y20840D1*
X23916Y20880D1*
X23810Y20945D1*
X23720Y21032D1*
X23655Y21133D1*
X23593Y21039D1*
X23505Y20951D1*
X23400Y20884D1*
X23282Y20842D1*
X23159Y20827D1*
X23034Y20840D1*
X22916Y20880D1*
X22810Y20945D1*
X22720Y21032D1*
X22655Y21133D1*
X22593Y21039D1*
X22505Y20951D1*
X22400Y20884D1*
X22282Y20842D1*
X22159Y20827D1*
X22034Y20840D1*
X21916Y20880D1*
X21810Y20945D1*
X21720Y21032D1*
X21655Y21133D1*
X21593Y21039D1*
X21505Y20951D1*
X21400Y20884D1*
X21282Y20842D1*
X21159Y20827D1*
X21034Y20840D1*
X20916Y20880D1*
X20810Y20945D1*
X20720Y21032D1*
X20655Y21133D1*
X20593Y21039D1*
X20505Y20951D1*
X20400Y20884D1*
X20282Y20842D1*
X20159Y20827D1*
X20034Y20840D1*
X19916Y20880D1*
X19810Y20945D1*
X19720Y21032D1*
X19655Y21133D1*
X19593Y21039D1*
X19505Y20951D1*
X19400Y20884D1*
X19282Y20842D1*
X19159Y20827D1*
X19034Y20840D1*
X18916Y20880D1*
X18810Y20945D1*
X18720Y21032D1*
X18655Y21133D1*
X18593Y21039D1*
X18505Y20951D1*
X18400Y20884D1*
X18282Y20842D1*
X18159Y20827D1*
X18034Y20840D1*
X17916Y20880D1*
X17810Y20945D1*
X17757Y20996D1*
X17290Y20997D1*
X17293Y20852D1*
X17365Y20779D1*
X17435Y20676D1*
X17483Y20561D1*
X17508Y20387D1*
X17496Y20263D1*
X17458Y20144D1*
X17396Y20036D1*
X17313Y19942D1*
X17241Y19888D1*
X17330Y19815D1*
X17409Y19719D1*
X17466Y19608D1*
X17499Y19488D1*
X17507Y19362D1*
X17489Y19239D1*
X17446Y19121D1*
X17380Y19016D1*
X17294Y18925D1*
X17191Y18855D1*
X17076Y18807D1*
X16953Y18784D1*
X16828Y18787D1*
X16752Y18801D1*
X16708Y18644D1*
X16646Y18536D1*
X16563Y18442D1*
X16463Y18367D1*
X16350Y18315D1*
X16229Y18287D1*
X16104Y18284D1*
X15981Y18307D1*
X15866Y18355D1*
X15763Y18425D1*
X15676Y18515D1*
X15610Y18621D1*
X15567Y18738D1*
X15549Y18862D1*
X15557Y18986D1*
X15590Y19106D1*
X15647Y19217D1*
X15725Y19314D1*
X15765Y19346D1*
X15764Y19762D1*
X15783Y19885D1*
X15844Y19998D1*
X15878Y20038D1*
X16124Y20284D1*
X15981Y20307D1*
X15866Y20355D1*
X15763Y20425D1*
X15676Y20515D1*
X15645Y20565D1*
X15290Y20562D1*
X15133Y20407D1*
X15030Y20338D1*
X14904Y20312D1*
X12904D1*
X12782Y20336D1*
X12674Y20407D1*
X12424Y20657D1*
X12354Y20760D1*
X12329Y20887D1*
Y20930D1*
X12220Y21032D1*
X12155Y21133D1*
X12093Y21039D1*
X12005Y20951D1*
X11900Y20884D1*
X11782Y20842D1*
X11659Y20827D1*
X11534Y20840D1*
X11416Y20880D1*
X11310Y20945D1*
X11220Y21032D1*
X11155Y21133D1*
X11093Y21039D1*
X11005Y20951D1*
X10900Y20884D1*
X10782Y20842D1*
X10659Y20827D1*
X10534Y20840D1*
X10416Y20880D1*
X10310Y20945D1*
X10201Y21061D1*
X10111Y21062D1*
X10005Y20951D1*
X9900Y20884D1*
X9782Y20842D1*
X9659Y20827D1*
X9534Y20840D1*
X9416Y20880D1*
X9310Y20945D1*
X9220Y21032D1*
X9155Y21133D1*
X9093Y21039D1*
X9005Y20951D1*
X8900Y20884D1*
X8782Y20842D1*
X8659Y20827D1*
X8534Y20840D1*
X8416Y20880D1*
X8310Y20945D1*
X8257Y20996D1*
X8064Y20997D1*
X7856Y20788D1*
X7935Y20676D1*
X7983Y20561D1*
X8008Y20387D1*
X7996Y20263D1*
X7958Y20144D1*
X7896Y20036D1*
X7813Y19942D1*
X7741Y19888D1*
X7830Y19815D1*
X7909Y19719D1*
X7966Y19608D1*
X7999Y19488D1*
X8007Y19362D1*
X7989Y19239D1*
X7946Y19121D1*
X7880Y19016D1*
X7794Y18925D1*
X7691Y18855D1*
X7576Y18807D1*
X7453Y18784D1*
X7328Y18787D1*
X7207Y18815D1*
X7093Y18867D1*
X6993Y18942D1*
X6911Y19035D1*
X6849Y19144D1*
X6811Y19262D1*
X6798Y19387D1*
X6811Y19511D1*
X6849Y19630D1*
X6910Y19738D1*
X6993Y19832D1*
X7063Y19887D1*
X7013Y19925D1*
X6926Y20015D1*
X6860Y20121D1*
X6817Y20238D1*
X6799Y20362D1*
X6807Y20486D1*
X6840Y20606D1*
X6897Y20717D1*
X6975Y20814D1*
X7015Y20846D1*
X7033Y21010D1*
X7094Y21123D1*
X7128Y21163D1*
X7628Y21663D1*
X7729Y21736D1*
X7851Y21773D1*
X7904Y21777D1*
X8251D1*
X8283Y22010D1*
X8344Y22123D1*
X8378Y22163D1*
X9003Y22788D1*
X9104Y22861D1*
X9226Y22898D1*
X9279Y22902D1*
X12529D1*
X12651Y22882D1*
X12764Y22822D1*
X12804Y22788D1*
X13083Y22509D1*
X13092Y22548D1*
X13151Y22658D1*
X13236Y22749D1*
X13343Y22813D1*
X13463Y22847D1*
X13587Y22848D1*
X13708Y22816D1*
X13815Y22753D1*
X13856Y22711D1*
X14029Y22712D1*
X14150Y22688D1*
X14258Y22617D1*
X14287Y22588D1*
X18689Y22587D1*
X18690Y22676D1*
X18717Y22798D1*
X18776Y22908D1*
X18861Y22999D1*
X18968Y23063D1*
X19088Y23097D1*
X19154Y23098D1*
X19299Y23242D1*
X19402Y23311D1*
X19529Y23337D1*
X25779D1*
X25900Y23313D1*
X26008Y23242D1*
X26536Y22714D1*
X29279Y22712D1*
X30404D1*
X30525Y22688D1*
X30633Y22617D1*
X31327Y21923D1*
X31389Y21931D1*
X31513Y21921D1*
X31632Y21883D1*
X31739Y21820D1*
X31830Y21734D1*
X31904Y21620D1*
X31958Y21711D1*
X32044Y21801D1*
X32148Y21870D1*
X32265Y21914D1*
X32389Y21931D1*
X32513Y21921D1*
X32632Y21883D1*
X32739Y21820D1*
X32830Y21734D1*
X32904Y21620D1*
X32958Y21711D1*
X33044Y21801D1*
X33148Y21870D1*
X33265Y21914D1*
X33389Y21931D1*
X33513Y21921D1*
X33632Y21883D1*
X33739Y21820D1*
X33830Y21734D1*
X33904Y21620D1*
X33958Y21711D1*
X34044Y21801D1*
X34148Y21870D1*
X34265Y21914D1*
X34389Y21931D1*
X34513Y21921D1*
X34632Y21883D1*
X34739Y21820D1*
X34830Y21734D1*
X34904Y21620D1*
X34958Y21711D1*
X35044Y21801D1*
X35148Y21870D1*
X35265Y21914D1*
X35389Y21931D1*
X35513Y21921D1*
X35632Y21883D1*
X35739Y21820D1*
X35830Y21734D1*
X35904Y21620D1*
X35958Y21711D1*
X36044Y21801D1*
X36148Y21870D1*
X36265Y21914D1*
X36389Y21931D1*
X36513Y21921D1*
X36632Y21883D1*
X36739Y21820D1*
X36830Y21734D1*
X36904Y21620D1*
X36958Y21711D1*
X37044Y21801D1*
X37148Y21870D1*
X37265Y21914D1*
X37389Y21931D1*
X37513Y21921D1*
X37632Y21883D1*
X37739Y21820D1*
X37830Y21734D1*
X37904Y21620D1*
X37958Y21711D1*
X38044Y21801D1*
X38148Y21870D1*
X38265Y21914D1*
X38389Y21931D1*
X38513Y21921D1*
X38632Y21883D1*
X38739Y21820D1*
X38830Y21734D1*
X38904Y21620D1*
X38958Y21711D1*
X39044Y21801D1*
X39148Y21870D1*
X39265Y21914D1*
X39389Y21931D1*
X39513Y21921D1*
X39632Y21883D1*
X39739Y21820D1*
X39830Y21734D1*
X39904Y21620D1*
X39958Y21711D1*
X40044Y21801D1*
X40148Y21870D1*
X40265Y21914D1*
X40389Y21931D1*
X40513Y21921D1*
X40632Y21883D1*
X40739Y21820D1*
X40830Y21734D1*
X40900Y21631D1*
X40945Y21514D1*
X40964Y21371D1*
X40950Y21247D1*
X40909Y21129D1*
X40843Y21024D1*
X40755Y20935D1*
X40650Y20868D1*
X40532Y20826D1*
X40409Y20811D1*
X40284Y20824D1*
X40166Y20864D1*
X40060Y20929D1*
X39970Y21016D1*
X39905Y21117D1*
X39843Y21024D1*
X39755Y20935D1*
X39650Y20868D1*
X39532Y20826D1*
X39409Y20811D1*
X39284Y20824D1*
X39166Y20864D1*
X39060Y20929D1*
X38970Y21016D1*
X38905Y21117D1*
X38843Y21024D1*
X38755Y20935D1*
X38650Y20868D1*
X38532Y20826D1*
X38409Y20811D1*
X38284Y20824D1*
X38166Y20864D1*
X38060Y20929D1*
X37970Y21016D1*
X37905Y21117D1*
X37843Y21024D1*
X37755Y20935D1*
X37650Y20868D1*
X37532Y20826D1*
X37409Y20811D1*
X37284Y20824D1*
X37166Y20864D1*
X37060Y20929D1*
X36970Y21016D1*
X36905Y21117D1*
X36843Y21024D1*
X36755Y20935D1*
X36650Y20868D1*
X36532Y20826D1*
X36409Y20811D1*
X36284Y20824D1*
X36166Y20864D1*
X36060Y20929D1*
X35970Y21016D1*
X35905Y21117D1*
X35843Y21024D1*
X35755Y20935D1*
X35650Y20868D1*
X35532Y20826D1*
X35409Y20811D1*
X35284Y20824D1*
X35166Y20864D1*
X35060Y20929D1*
X34970Y21016D1*
X34905Y21117D1*
X34843Y21024D1*
X34755Y20935D1*
X34650Y20868D1*
X34532Y20826D1*
X34409Y20811D1*
X34284Y20824D1*
X34166Y20864D1*
X34060Y20929D1*
X33970Y21016D1*
X33905Y21117D1*
X33843Y21024D1*
X33755Y20935D1*
X33650Y20868D1*
X33532Y20826D1*
X33409Y20811D1*
X33284Y20824D1*
X33166Y20864D1*
X33060Y20929D1*
X32970Y21016D1*
X32905Y21117D1*
X32843Y21024D1*
X32755Y20935D1*
X32650Y20868D1*
X32532Y20826D1*
X32409Y20811D1*
X32284Y20824D1*
X32166Y20864D1*
X32060Y20929D1*
X31970Y21016D1*
X31905Y21117D1*
X31843Y21024D1*
X31755Y20935D1*
X31650Y20868D1*
X31532Y20826D1*
X31409Y20811D1*
X31284Y20824D1*
X31166Y20864D1*
X31060Y20929D1*
X30970Y21016D1*
X30905Y21117D1*
X30843Y21024D1*
X30755Y20935D1*
X30650Y20868D1*
X30532Y20826D1*
X30409Y20811D1*
X30284Y20824D1*
X30166Y20864D1*
X30060Y20929D1*
X29970Y21016D1*
X29905Y21117D1*
X29843Y21024D1*
X29755Y20935D1*
X29650Y20868D1*
X29532Y20826D1*
X29409Y20811D1*
X29284Y20824D1*
X29166Y20864D1*
X29060Y20929D1*
X28970Y21016D1*
X28905Y21117D1*
X28843Y21024D1*
X28755Y20935D1*
X28650Y20868D1*
X28532Y20826D1*
X28409Y20811D1*
X28284Y20824D1*
X28166Y20864D1*
X28060Y20929D1*
X27970Y21016D1*
X27905Y21117D1*
X27843Y21024D1*
X27755Y20935D1*
X27650Y20868D1*
X27532Y20826D1*
X27409Y20811D1*
X27284Y20824D1*
X27166Y20864D1*
X27060Y20929D1*
X26970Y21016D1*
X26903Y21121D1*
X26860Y21238D1*
X26843Y21361D1*
X26855Y21486D1*
X26881Y21563D1*
X26484Y21561D1*
X26509Y21387D1*
X26496Y21263D1*
X26458Y21144D1*
X26397Y21036D1*
X26314Y20942D1*
X26242Y20888D1*
X26331Y20815D1*
X26409Y20719D1*
X26467Y20608D1*
X26500Y20488D1*
X26508Y20362D1*
X17258Y12612D2*
X17240Y12489D1*
X17197Y12371D1*
X17131Y12266D1*
X17045Y12175D1*
X16942Y12105D1*
X16826Y12057D1*
X16704Y12034D1*
X16579Y12037D1*
X16457Y12065D1*
X16344Y12117D1*
X16244Y12192D1*
X16161Y12285D1*
X16153Y12297D1*
X16063Y12193D1*
X15963Y12118D1*
X15850Y12066D1*
X15729Y12038D1*
X15604Y12035D1*
X15481Y12058D1*
X15366Y12106D1*
X15263Y12176D1*
X15176Y12266D1*
X15110Y12372D1*
X15067Y12489D1*
X15049Y12612D1*
X15057Y12737D1*
X15090Y12857D1*
X15147Y12968D1*
X15225Y13065D1*
X15326Y13146D1*
X15329Y13387D1*
X15352Y13509D1*
X15424Y13617D1*
X15565Y13758D1*
X15549Y13862D1*
X15557Y13986D1*
X15590Y14106D1*
X15647Y14217D1*
X15725Y14314D1*
X15822Y14393D1*
X15933Y14450D1*
X16053Y14484D1*
X16178Y14491D1*
X16301Y14474D1*
X16418Y14431D1*
X16524Y14365D1*
X16615Y14279D1*
X16685Y14176D1*
X16733Y14061D1*
X16758Y13887D1*
X16746Y13763D1*
X16708Y13644D1*
X16646Y13536D1*
X16563Y13442D1*
X16463Y13367D1*
X16350Y13315D1*
X16229Y13287D1*
X16104Y13284D1*
X16023Y13299D1*
X16024Y13116D1*
X16115Y13029D1*
X16152Y12975D1*
X16225Y13064D1*
X16322Y13143D1*
X16433Y13200D1*
X16553Y13234D1*
X16678Y13241D1*
X16801Y13224D1*
X16918Y13181D1*
X17024Y13115D1*
X17115Y13029D1*
X17185Y12926D1*
X17233Y12811D1*
X17256Y12688D1*
X17258Y12612D1*
X7996Y15263D2*
X7958Y15144D1*
X7896Y15036D1*
X7813Y14942D1*
X7741Y14888D1*
X7830Y14815D1*
X7909Y14719D1*
X7966Y14608D1*
X7999Y14488D1*
X8007Y14362D1*
X7989Y14239D1*
X7946Y14121D1*
X7880Y14016D1*
X7794Y13925D1*
X7691Y13855D1*
X7576Y13807D1*
X7453Y13784D1*
X7328Y13787D1*
X7207Y13815D1*
X7093Y13867D1*
X6993Y13942D1*
X6911Y14035D1*
X6849Y14144D1*
X6811Y14262D1*
X6798Y14387D1*
X6811Y14511D1*
X6849Y14630D1*
X6910Y14738D1*
X6993Y14832D1*
X7063Y14887D1*
X7013Y14925D1*
X6926Y15015D1*
X6860Y15121D1*
X6817Y15238D1*
X6799Y15362D1*
X6807Y15486D1*
X6840Y15606D1*
X6897Y15717D1*
X6975Y15814D1*
X7072Y15893D1*
X7183Y15950D1*
X7303Y15984D1*
X7428Y15991D1*
X7551Y15974D1*
X7668Y15931D1*
X7774Y15865D1*
X7865Y15779D1*
X7935Y15676D1*
X7983Y15561D1*
X8008Y15387D1*
X7996Y15263D1*
X35739Y9002D2*
X36778D1*
X36779Y11887D1*
X36840Y11992D1*
X36904Y12012D1*
X41779D1*
Y23586D1*
X41599Y23764D1*
X39654Y23762D1*
X35697D1*
X35609Y23728D1*
X35487Y23702D1*
X35362Y23698D1*
X35239Y23717D1*
X35111Y23763D1*
X22279Y23762D1*
X20447D1*
X20359Y23728D1*
X20237Y23702D1*
X20112Y23698D1*
X19989Y23717D1*
X19861Y23763D1*
X6954Y23762D1*
X6776Y23583D1*
X6779Y21637D1*
Y12012D1*
X9353D1*
X9329Y12137D1*
Y12180D1*
X9236Y12309D1*
X9196Y12427D1*
X9193Y12563D1*
X8361Y12562D1*
X8250Y12478D1*
X8133Y12434D1*
X8009Y12423D1*
X7886Y12444D1*
X7774Y12498D1*
X7680Y12580D1*
X7611Y12684D1*
X7571Y12802D1*
X7565Y12926D1*
X7592Y13048D1*
X7651Y13158D1*
X7736Y13249D1*
X7843Y13313D1*
X7963Y13347D1*
X8091D1*
X8093Y13947D1*
X9214D1*
Y13732D1*
X9294Y13817D1*
X9398Y13886D1*
X9515Y13930D1*
X9639Y13947D1*
X9763Y13936D1*
X9882Y13899D1*
X9989Y13835D1*
X10080Y13750D1*
X10154Y13636D1*
X10208Y13727D1*
X10294Y13817D1*
X10398Y13886D1*
X10515Y13930D1*
X10639Y13947D1*
X10763Y13936D1*
X10882Y13899D1*
X10989Y13835D1*
X11080Y13750D1*
X11154Y13636D1*
X11208Y13727D1*
X11294Y13817D1*
X11398Y13886D1*
X11515Y13930D1*
X11639Y13947D1*
X11763Y13936D1*
X11882Y13899D1*
X11989Y13835D1*
X12080Y13750D1*
X12154Y13636D1*
X12208Y13727D1*
X12294Y13817D1*
X12398Y13886D1*
X12515Y13930D1*
X12639Y13947D1*
X12763Y13936D1*
X12882Y13899D1*
X12989Y13835D1*
X13080Y13750D1*
X13154Y13636D1*
X13208Y13727D1*
X13294Y13817D1*
X13398Y13886D1*
X13515Y13930D1*
X13639Y13947D1*
X13763Y13936D1*
X13882Y13899D1*
X13989Y13835D1*
X14080Y13750D1*
X14154Y13636D1*
X14193Y13707D1*
X14276Y13800D1*
X14376Y13874D1*
X14491Y13923D1*
X14614Y13946D1*
X14738Y13941D1*
X14859Y13908D1*
X14969Y13850D1*
X15064Y13769D1*
X15138Y13668D1*
X15188Y13554D1*
X15212Y13432D1*
X15209Y13312D1*
X15178Y13191D1*
X15122Y13080D1*
X15043Y12984D1*
X14944Y12908D1*
X14830Y12855D1*
X14708Y12830D1*
X14584Y12831D1*
X14462Y12860D1*
X14351Y12916D1*
X14254Y12994D1*
X14177Y13093D1*
X14154Y13134D1*
X14093Y13039D1*
X14005Y12951D1*
X13900Y12884D1*
X13782Y12842D1*
X13659Y12827D1*
X13534Y12840D1*
X13416Y12880D1*
X13310Y12945D1*
X13220Y13032D1*
X13155Y13133D1*
X13093Y13039D1*
X13005Y12951D1*
X12900Y12884D1*
X12786Y12843D1*
X13290Y12335D1*
X13468Y12438D1*
X13588Y12472D1*
X13712Y12473D1*
X13833Y12441D1*
X13940Y12378D1*
X14027Y12289D1*
X14087Y12179D1*
X14118Y12012D1*
X14112Y11962D1*
X16947D1*
X16986Y11999D1*
X17093Y12063D1*
X17213Y12097D1*
X17337Y12098D1*
X17458Y12066D1*
X17565Y12003D1*
X17652Y11914D1*
X17717Y11785D1*
X18049Y12117D1*
X18152Y12186D1*
X18279Y12212D1*
X21142D1*
X21270Y12308D1*
X21383Y12336D1*
X26517Y12337D1*
X26674Y12492D1*
X26777Y12561D1*
X26904Y12587D1*
X27423D1*
X27361Y12684D1*
X27321Y12802D1*
X27315Y12926D1*
X27342Y13048D1*
X27401Y13158D1*
X27486Y13249D1*
X27593Y13313D1*
X27713Y13347D1*
X27779Y13348D1*
X27924Y13492D1*
X28027Y13561D1*
X28154Y13587D1*
X29779D1*
X29900Y13563D1*
X30008Y13492D1*
X30536Y12964D1*
X30689Y12962D1*
X30690Y13051D1*
X30717Y13173D1*
X30776Y13283D1*
X30861Y13374D1*
X30968Y13438D1*
X31088Y13472D1*
X31154Y13473D1*
X31549Y13867D1*
X31652Y13936D1*
X31779Y13962D1*
X35642D1*
X36049Y14367D1*
X36152Y14436D1*
X36279Y14462D1*
X36892D1*
X37049Y14617D1*
X37152Y14686D1*
X37279Y14712D1*
X38904D1*
X39025Y14688D1*
X39133Y14617D1*
X39396Y14354D1*
X39462Y14348D1*
X39583Y14316D1*
X39690Y14253D1*
X39777Y14164D1*
X39837Y14054D1*
X39856Y13975D1*
X39962Y13973D1*
X40083Y13941D1*
X40190Y13878D1*
X40277Y13789D1*
X40337Y13679D1*
X40368Y13512D1*
X40352Y13389D1*
X40303Y13274D1*
X40225Y13176D1*
X40125Y13103D1*
X40008Y13059D1*
X39903Y13049D1*
X39758Y12907D1*
X39655Y12838D1*
X39529Y12812D1*
X36915D1*
X35883Y11782D1*
X35780Y11713D1*
X35654Y11687D1*
X35616Y11683D1*
X35602Y11514D1*
X35553Y11399D1*
X35478Y11304D1*
Y11262D1*
X35455Y11140D1*
X35383Y11032D1*
X34883Y10532D1*
X34780Y10463D1*
X34654Y10437D1*
X34116Y10433D1*
X34102Y10264D1*
X34053Y10149D1*
X33975Y10051D1*
X33875Y9978D1*
X33758Y9934D1*
X33653Y9924D1*
X33258Y9532D1*
X33155Y9463D1*
X33029Y9437D1*
X28900D1*
X28904Y9000D1*
X29843Y9002D1*
X33843Y9001D1*
X35843Y9002D1*
X35739D1*
X25299Y20387D2*
D16*
X26508D1*
X16654Y13241D2*
Y12033D1*
Y12637D2*
X17258D1*
X16903Y19387D2*
Y18783D1*
Y19387D2*
X17507D1*
X7403D2*
Y18783D1*
X6798Y19387D2*
X8007D1*
X16903Y14887D2*
Y14283D1*
X16298Y14887D2*
X17507D1*
X7403Y14387D2*
Y13783D1*
X6798Y14387D2*
X8007D1*
X36279Y9001D2*
Y7137D1*
X35279Y9001D2*
Y7137D1*
X34279Y9001D2*
Y7137D1*
X33279Y9001D2*
Y7137D1*
X32279Y9001D2*
Y7137D1*
X31279Y9001D2*
Y7137D1*
X30279Y9001D2*
Y7137D1*
X29279Y9001D2*
Y7137D1*
X40404Y15947D2*
Y14827D1*
Y15387D2*
X40963D1*
X24154Y18387D2*
X24713D1*
X24154Y13947D2*
Y12827D1*
Y13387D2*
X24713D1*
X14654Y13947D2*
Y12827D1*
Y13387D2*
X15213D1*
X14654Y18947D2*
Y18387D1*
X15213D1*
D19*
X25904Y20387D3*
Y21387D3*
X16654Y12637D3*
X15654Y12638D3*
X16904Y20387D3*
X16903Y19387D3*
X7404Y20387D3*
X7403Y19387D3*
X16904Y15887D3*
X16903Y14887D3*
X7404Y15387D3*
X7403Y14387D3*
D20*
X36279Y7137D3*
X35279D3*
X34279D3*
X33279D3*
X32279D3*
X31279D3*
X30279D3*
X29279D3*
X28279D3*
X27279D3*
X26279D3*
X25279D3*
X24279D3*
X23279D3*
X22279D3*
X21279D3*
X20279D3*
X19279D3*
X18279D3*
X17279D3*
X16279D3*
X15279D3*
X14279D3*
X13279D3*
X12279D3*
D19*
X16154Y15887D3*
Y13887D3*
Y18887D3*
Y20887D3*
D21*
X27404Y15387D3*
D22*
X28404D3*
X29404D3*
X30404D3*
X31404D3*
X32404D3*
X33404D3*
X34404D3*
X35404D3*
X36404D3*
X37404D3*
X38404D3*
X39404D3*
X40404D3*
Y21371D3*
X39404D3*
X38404D3*
X37404D3*
X36404D3*
X35404D3*
X34404D3*
X33404D3*
X32404D3*
X31404D3*
X30404D3*
X29404D3*
X28404D3*
X27404D3*
D21*
X18154Y18387D3*
D22*
X19154D3*
X20154D3*
X21154D3*
X22154D3*
X23154D3*
X24154D3*
Y21387D3*
X23154D3*
X22154D3*
X21154D3*
X20154D3*
X19154D3*
X18154D3*
D21*
Y13387D3*
D22*
X19154D3*
X20154D3*
X21154D3*
X22154D3*
X23154D3*
X24154D3*
Y16387D3*
X23154D3*
X22154D3*
X21154D3*
X20154D3*
X19154D3*
X18154D3*
D21*
X8654Y13387D3*
D22*
X9654D3*
X10654D3*
X11654D3*
X12654D3*
X13654D3*
X14654D3*
Y16387D3*
X13654D3*
X12654D3*
X11654D3*
X10654D3*
X9654D3*
X8654D3*
D21*
Y18387D3*
D22*
X9654D3*
X10654D3*
X11654D3*
X12654D3*
X13654D3*
X14654D3*
Y21387D3*
X13654D3*
X12654D3*
X11654D3*
X10654D3*
X9654D3*
X8654D3*
G36*
X28779Y31512D2*
X29529D1*
Y31137D1*
X28779D1*
Y31512D1*
G37*
G36*
X29529Y31137D2*
X30279D1*
Y30762D1*
X29529D1*
Y31137D1*
G37*
G36*
X30279Y31512D2*
X31029D1*
Y31137D1*
X30279D1*
Y31512D1*
G37*
G36*
X28654Y30387D2*
X31154D1*
Y29262D1*
X28654D1*
Y30387D1*
G37*
G36*
X18779Y26512D2*
X20779D1*
Y26137D1*
X21529D1*
Y25887D1*
X22154D1*
Y25637D1*
X22904D1*
Y25262D1*
X23654D1*
Y24887D1*
X21529D1*
Y25262D1*
X20904D1*
Y25637D1*
X20154D1*
Y25887D1*
X19404D1*
Y26137D1*
X18779D1*
D1*
Y26512D1*
G37*
G36*
X25029D2*
X27029D1*
Y26137D1*
X27779D1*
Y25887D1*
X28404D1*
Y25637D1*
X29154D1*
Y25262D1*
X29904D1*
Y24887D1*
X27779D1*
Y25262D1*
X27154D1*
Y25637D1*
X26404D1*
Y25887D1*
X25654D1*
Y26137D1*
X25029D1*
D1*
Y26512D1*
G37*
M02*
