G04 DipTrace 2.4.0.2*
%INBottomMask.gbr*%
%MOIN*%
%ADD29C,0.0669*%
%ADD31R,0.0669X0.0669*%
%ADD33R,0.0679X0.3279*%
%ADD35C,0.0759*%
%FSLAX44Y44*%
G04*
G70*
G90*
G75*
G01*
%LNBotMask*%
%LPD*%
D35*
X25904Y20387D3*
Y21387D3*
X16654Y12637D3*
X15654Y12638D3*
X16904Y20387D3*
X16903Y19387D3*
X7404Y20387D3*
X7403Y19387D3*
X16904Y15887D3*
X16903Y14887D3*
X7404Y15387D3*
X7403Y14387D3*
D33*
X36279Y7137D3*
X35279D3*
X34279D3*
X33279D3*
X32279D3*
X31279D3*
X30279D3*
X29279D3*
X28279D3*
X27279D3*
X26279D3*
X25279D3*
X24279D3*
X23279D3*
X22279D3*
X21279D3*
X20279D3*
X19279D3*
X18279D3*
X17279D3*
X16279D3*
X15279D3*
X14279D3*
X13279D3*
X12279D3*
D35*
X16154Y15887D3*
Y13887D3*
Y18887D3*
Y20887D3*
D31*
X27404Y15387D3*
D29*
X28404D3*
X29404D3*
X30404D3*
X31404D3*
X32404D3*
X33404D3*
X34404D3*
X35404D3*
X36404D3*
X37404D3*
X38404D3*
X39404D3*
X40404D3*
Y21371D3*
X39404D3*
X38404D3*
X37404D3*
X36404D3*
X35404D3*
X34404D3*
X33404D3*
X32404D3*
X31404D3*
X30404D3*
X29404D3*
X28404D3*
X27404D3*
D31*
X18154Y18387D3*
D29*
X19154D3*
X20154D3*
X21154D3*
X22154D3*
X23154D3*
X24154D3*
Y21387D3*
X23154D3*
X22154D3*
X21154D3*
X20154D3*
X19154D3*
X18154D3*
D31*
Y13387D3*
D29*
X19154D3*
X20154D3*
X21154D3*
X22154D3*
X23154D3*
X24154D3*
Y16387D3*
X23154D3*
X22154D3*
X21154D3*
X20154D3*
X19154D3*
X18154D3*
D31*
X8654Y13387D3*
D29*
X9654D3*
X10654D3*
X11654D3*
X12654D3*
X13654D3*
X14654D3*
Y16387D3*
X13654D3*
X12654D3*
X11654D3*
X10654D3*
X9654D3*
X8654D3*
D31*
Y18387D3*
D29*
X9654D3*
X10654D3*
X11654D3*
X12654D3*
X13654D3*
X14654D3*
Y21387D3*
X13654D3*
X12654D3*
X11654D3*
X10654D3*
X9654D3*
X8654D3*
G36*
X28779Y31512D2*
X29529D1*
Y31137D1*
X28779D1*
Y31512D1*
G37*
G36*
X29529Y31137D2*
X30279D1*
Y30762D1*
X29529D1*
Y31137D1*
G37*
G36*
X30279Y31512D2*
X31029D1*
Y31137D1*
X30279D1*
Y31512D1*
G37*
G36*
X28654Y30387D2*
X31154D1*
Y29262D1*
X28654D1*
Y30387D1*
G37*
G36*
X25029Y26512D2*
X27029D1*
Y26137D1*
X27779D1*
Y25887D1*
X28404D1*
Y25637D1*
X29154D1*
Y25262D1*
X29904D1*
Y24887D1*
X27779D1*
Y25262D1*
X27154D1*
Y25637D1*
X26404D1*
Y25887D1*
X25654D1*
Y26137D1*
X25029D1*
D1*
Y26512D1*
G37*
G36*
X18779D2*
X20779D1*
Y26137D1*
X21529D1*
Y25887D1*
X22154D1*
Y25637D1*
X22904D1*
Y25262D1*
X23654D1*
Y24887D1*
X21529D1*
Y25262D1*
X20904D1*
Y25637D1*
X20154D1*
Y25887D1*
X19404D1*
Y26137D1*
X18779D1*
D1*
Y26512D1*
G37*
M02*
