M48
INCH
T01C0.0191
T02C0.032
T03C0.0354
%
T01
X+025404Y+015387
X+025404Y+013387
X+027779Y+012887
X+028654Y+012887
X+029279Y+012512
X+029779Y+011512
X+030279Y+011512
X+030779Y+011012
X+031529Y+011012
X+031904Y+010387
X+032904Y+010387
X+033279Y+010762
X+033279Y+011262
X+033654Y+010387
X+034654Y+011262
X+035154Y+011637
X+034529Y+012012
X+034904Y+013262
X+036904Y+012387
X+037904Y+013762
X+038404Y+013762
X+038904Y+013512
X+039404Y+013887
X+039904Y+013512
X+038904Y+012387
X+040904Y+012387
X+035904Y+010887
X+032279Y+012887
X+031154Y+013012
X+028904Y+011012
X+027779Y+010887
X+026279Y+009387
X+023279Y+010387
X+022279Y+010637
X+022279Y+011637
X+021654Y+011637
X+021279Y+010637
X+019279Y+010637
X+018654Y+011512
X+017279Y+011637
X+016279Y+010262
X+014779Y+010137
X+014279Y+009762
X+013654Y+012012
X+012279Y+011762
X+010154Y+012512
X+009654Y+012512
X+008029Y+012887
X+007404Y+017387
X+007404Y+022262
X+013529Y+022387
X+013904Y+019887
X+014154Y+017512
X+013154Y+017012
X+014654Y+015262
X+015279Y+015387
X+013404Y+014387
X+018279Y+009887
X+019654Y+009262
X+020154Y+015137
X+019154Y+017762
X+018154Y+019387
X+017904Y+020387
X+019154Y+019762
X+020904Y+020387
X+023154Y+020137
X+020154Y+022637
X+019154Y+022637
X+023154Y+014387
X+028404Y+017887
X+028904Y+017512
X+031404Y+018887
X+032404Y+019262
X+033404Y+020012
X+034279Y+019637
X+035404Y+017137
X+034654Y+016762
X+033904Y+016762
X+030404Y+020012
X+040404Y+022887
T02
X+025904Y+020387
X+025904Y+021387
X+016904Y+020387
X+016154Y+020887
X+016903Y+019387
X+016154Y+018887
X+016154Y+015887
X+016904Y+015887
X+016903Y+014887
X+016154Y+013887
X+015654Y+012638
X+016654Y+012637
X+007403Y+014387
X+007404Y+015387
X+007403Y+019387
X+007404Y+020387
T03
X+027404Y+015387
X+028404Y+015387
X+029404Y+015387
X+030404Y+015387
X+031404Y+015387
X+032404Y+015387
X+033404Y+015387
X+034404Y+015387
X+035404Y+015387
X+036404Y+015387
X+037404Y+015387
X+038404Y+015387
X+039404Y+015387
X+040404Y+015387
X+040404Y+021371
X+039404Y+021371
X+038404Y+021371
X+037404Y+021371
X+036404Y+021371
X+035404Y+021371
X+034404Y+021371
X+033404Y+021371
X+032404Y+021371
X+031404Y+021371
X+030404Y+021371
X+029404Y+021371
X+028404Y+021371
X+027404Y+021371
X+024154Y+021387
X+023154Y+021387
X+022154Y+021387
X+021154Y+021387
X+020154Y+021387
X+019154Y+021387
X+018154Y+021387
X+018154Y+018387
X+019154Y+018387
X+020154Y+018387
X+021154Y+018387
X+022154Y+018387
X+023154Y+018387
X+024154Y+018387
X+024154Y+016387
X+023154Y+016387
X+022154Y+016387
X+021154Y+016387
X+020154Y+016387
X+019154Y+016387
X+018154Y+016387
X+018154Y+013387
X+019154Y+013387
X+020154Y+013387
X+021154Y+013387
X+022154Y+013387
X+023154Y+013387
X+024154Y+013387
X+014654Y+013387
X+013654Y+013387
X+012654Y+013387
X+011654Y+013387
X+010654Y+013387
X+009654Y+013387
X+008654Y+013387
X+008654Y+016387
X+009654Y+016387
X+010654Y+016387
X+011654Y+016387
X+012654Y+016387
X+013654Y+016387
X+014654Y+016387
X+014654Y+018387
X+013654Y+018387
X+012654Y+018387
X+011654Y+018387
X+010654Y+018387
X+009654Y+018387
X+008654Y+018387
X+008654Y+021387
X+009654Y+021387
X+010654Y+021387
X+011654Y+021387
X+012654Y+021387
X+013654Y+021387
X+014654Y+021387
T00
M30
