G04 DipTrace 2.4.0.2*
%INTop.gbr*%
%MOIN*%
%ADD13C,0.012*%
%ADD14C,0.04*%
%ADD15C,0.025*%
%ADD16C,0.02*%
%ADD19C,0.068*%
%ADD20R,0.06X0.32*%
%ADD21R,0.0591X0.0591*%
%ADD22C,0.0591*%
%FSLAX44Y44*%
G04*
G70*
G90*
G75*
G01*
%LNTop*%
%LPD*%
X9654Y13387D2*
D13*
Y12512D1*
X34529Y12012D2*
Y13637D1*
X36279Y15387D1*
X36404D1*
X12279Y7137D2*
Y11762D1*
X35279Y7137D2*
Y9762D1*
X34154Y10887D1*
Y13762D1*
X35404Y15012D1*
Y15387D1*
Y17137D1*
X34404Y15387D2*
Y16012D1*
X34279Y16137D1*
Y19637D1*
X18154Y19387D2*
Y18387D1*
X13279Y7137D2*
Y9137D1*
X13904Y9762D1*
X14279D1*
X33654Y10387D2*
Y14262D1*
X34404Y15012D1*
Y15387D1*
X36279Y7137D2*
Y9637D1*
X34654Y11262D1*
X33279D2*
Y14887D1*
X33404Y15012D1*
Y15387D1*
Y20012D1*
X19154Y19762D2*
Y18387D1*
X32404Y15387D2*
Y19262D1*
X16279Y7137D2*
Y10262D1*
X21654Y11637D2*
Y14137D1*
X20654Y15137D1*
Y17137D1*
X21154Y17637D1*
Y18387D1*
X31404Y15387D2*
Y18887D1*
X23279Y7137D2*
Y10387D1*
X31904D2*
Y14512D1*
X31404Y15012D1*
Y15387D1*
X30404D2*
Y20012D1*
X23154Y20137D2*
Y21387D1*
X19279Y7137D2*
Y10637D1*
X30779Y11012D2*
Y13762D1*
X30404Y14137D1*
Y15387D1*
X29404D2*
Y20387D1*
X29904Y20887D1*
Y21637D1*
X29404Y22137D1*
X22904D1*
X22154Y21387D1*
X20279Y7137D2*
Y10262D1*
X21029Y11012D1*
X21654D1*
X22279Y11637D1*
X29779Y11512D2*
Y14262D1*
X29404Y14637D1*
Y15387D1*
X20154Y21387D2*
Y22637D1*
X22279Y7137D2*
Y10637D1*
X31529Y11012D2*
Y14387D1*
X30904Y15012D1*
Y20387D1*
X30404Y20887D1*
Y21371D1*
X19154Y21387D2*
Y22637D1*
X31404Y21371D2*
Y20137D1*
X31904Y19637D1*
Y15012D1*
X32904Y14012D1*
Y10387D1*
X18279Y9887D2*
Y7137D1*
X15279D2*
Y10387D1*
X13654Y12012D1*
X8029Y12887D2*
Y14762D1*
X9154Y15887D1*
Y17137D1*
X8654Y17637D1*
Y18387D1*
Y20262D1*
X9154Y20762D1*
Y22012D1*
X9904Y22762D1*
X12904D1*
X13154Y23012D1*
X18529D1*
X18779Y23262D1*
X20654D1*
X21279Y22637D1*
X33154D1*
X34404Y21387D1*
Y21371D1*
X9654Y18387D2*
Y17637D1*
X10154Y17137D1*
Y12512D1*
X17279Y11637D2*
Y7137D1*
X32404Y21371D2*
Y21387D1*
X31404Y22387D1*
X21154D1*
X20529Y23012D1*
X18904D1*
X18654Y22762D1*
X13279D1*
X13029Y22512D1*
X10654D1*
X10154Y22012D1*
Y19637D1*
X9654Y19137D1*
Y18387D1*
X21279Y7137D2*
Y10637D1*
X28904Y11012D2*
Y12637D1*
X29029Y12762D1*
Y13762D1*
X28404Y14387D1*
Y15387D1*
Y17887D1*
X14279Y7137D2*
Y9137D1*
X14779Y9637D1*
Y10137D1*
X27779Y10887D2*
Y12387D1*
X28154Y12762D1*
Y14262D1*
X27904Y14512D1*
Y21637D1*
X28154Y21887D1*
X28904D1*
X29404Y21387D1*
Y21371D1*
X12654Y18387D2*
Y20512D1*
X13154Y21012D1*
Y22012D1*
X13529Y22387D1*
X12654Y13387D2*
Y14512D1*
X14154Y16012D1*
Y17512D1*
X28904D2*
Y20871D1*
X28404Y21371D1*
X33279Y7137D2*
Y10762D1*
X35154Y11637D2*
Y12012D1*
X37404Y14262D1*
Y15387D1*
X32279Y7137D2*
Y12887D1*
X38404Y13762D2*
Y15387D1*
X31279Y7137D2*
X31154D1*
Y13012D1*
X39404Y13887D2*
Y15387D1*
X30279Y7137D2*
Y11512D1*
X39904Y13512D2*
Y20137D1*
X40404Y20637D1*
Y21371D1*
X29279Y7137D2*
Y12512D1*
X38904Y13512D2*
Y20137D1*
X39404Y20637D1*
Y21371D1*
X28279Y7137D2*
Y12137D1*
X28654Y12512D1*
Y12887D1*
X37904Y13762D2*
Y20137D1*
X38404Y20637D1*
Y21371D1*
X27279Y7137D2*
Y12387D1*
X27779Y12887D1*
X34904Y13262D2*
X35279D1*
X36904Y14887D1*
Y20137D1*
X37404Y20637D1*
Y21371D1*
X34279Y7137D2*
Y10387D1*
X33904Y10762D1*
Y14012D1*
X34904Y15012D1*
Y16012D1*
X35029Y16137D1*
Y18887D1*
X36404Y20262D1*
Y21371D1*
X9654Y16387D2*
Y15512D1*
X8779Y14637D1*
Y13512D1*
X8654Y13387D1*
X16154Y13887D2*
X16029D1*
X14654Y15262D1*
X12654Y16387D2*
Y15387D1*
X11654Y14387D1*
Y13387D1*
X26279Y9387D2*
D14*
Y18762D1*
X27404Y19887D1*
Y21371D1*
X25904Y21387D2*
D15*
X27388D1*
X27404Y21371D1*
X16154Y18887D2*
Y15887D1*
X16904D1*
X17029D1*
X17529Y16387D1*
X18154D1*
X7404Y20387D2*
X7779D1*
X8029Y20137D1*
Y17012D1*
X8654Y16387D1*
Y16012D1*
X8029Y15387D1*
X7404D1*
X13654Y18387D2*
D13*
Y18012D1*
X13154Y17512D1*
Y17012D1*
X21154Y16387D2*
X22154D1*
X18154Y13387D2*
Y14637D1*
X18654Y15137D1*
Y17262D1*
X19154Y17762D1*
Y13387D2*
Y14637D1*
X19654Y15137D1*
Y20012D1*
X20404Y20762D1*
X22404D1*
X22654Y21012D1*
Y21512D1*
X23029Y21887D1*
X23654D1*
X24154Y21387D1*
X20154Y13387D2*
X21154D1*
X22154D2*
Y13887D1*
X24154Y15887D1*
Y16387D1*
X23154Y13387D2*
Y14387D1*
X15279Y15387D2*
Y15762D1*
X15654Y16137D1*
Y20512D1*
X15154Y21012D1*
Y21637D1*
X14904Y21887D1*
X14154D1*
X13654Y21387D1*
X14654D2*
Y20887D1*
X14404Y20637D1*
X13654D1*
X13154Y20137D1*
Y18012D1*
X11654Y16512D1*
Y16387D1*
Y15512D1*
X10654Y14512D1*
Y13387D1*
X20154Y16387D2*
Y15137D1*
X34654Y16762D2*
Y18887D1*
X35404Y19637D1*
Y21371D1*
X19654Y9262D2*
Y14637D1*
X20154Y15137D1*
X19154Y16387D2*
Y15137D1*
X18654Y14637D1*
Y11512D1*
X33904Y16762D2*
Y20387D1*
X33404Y20887D1*
Y21371D1*
D14*
X9654Y12512D3*
X34529Y12012D3*
X12279Y11762D3*
X35404Y17137D3*
X34279Y19637D3*
X18154Y19387D3*
X14279Y9762D3*
X33654Y10387D3*
X34654Y11262D3*
X33279D3*
X33404Y20012D3*
X19154Y19762D3*
X32404Y19262D3*
X16279Y10262D3*
X21654Y11637D3*
X31404Y18887D3*
X23279Y10387D3*
X31904D3*
X30404Y20012D3*
X23154Y20137D3*
X19279Y10637D3*
X30779Y11012D3*
X22279Y11637D3*
X29779Y11512D3*
X20154Y22637D3*
X22279Y10637D3*
X31529Y11012D3*
X19154Y22637D3*
X32904Y10387D3*
X18279Y9887D3*
X13654Y12012D3*
X8029Y12887D3*
X10154Y12512D3*
X17279Y11637D3*
X21279Y10637D3*
X28904Y11012D3*
X28404Y17887D3*
X14779Y10137D3*
X27779Y10887D3*
X13529Y22387D3*
X14154Y17512D3*
X28904D3*
X33279Y10762D3*
X35154Y11637D3*
X32279Y12887D3*
X38404Y13762D3*
X31154Y13012D3*
X39404Y13887D3*
X30279Y11512D3*
X39904Y13512D3*
X29279Y12512D3*
X38904Y13512D3*
X28654Y12887D3*
X37904Y13762D3*
X27779Y12887D3*
X34904Y13262D3*
X14654Y15262D3*
X26279Y9387D3*
X13154Y17012D3*
X19154Y17762D3*
X23154Y14387D3*
X15279Y15387D3*
X20154Y15137D3*
X34654Y16762D3*
X19654Y9262D3*
X18654Y11512D3*
X33904Y16762D3*
X25404Y15387D3*
X7404Y22262D3*
X25404Y13387D3*
X35904Y10887D3*
X20904Y20387D3*
X13904Y19887D3*
X38904Y12387D3*
X36904D3*
X17904Y20387D3*
X7404Y17387D3*
X13404Y14387D3*
X40904Y12387D3*
X40404Y22887D3*
X6804Y23513D2*
D15*
X18548D1*
X20884D2*
X41756D1*
X6804Y23265D2*
X12923D1*
X21134D2*
X41756D1*
X6804Y23016D2*
X9677D1*
X21384D2*
X41756D1*
X6804Y22767D2*
X9423D1*
X33509D2*
X41756D1*
X6804Y22519D2*
X9177D1*
X33755D2*
X41756D1*
X6804Y22270D2*
X8927D1*
X14005D2*
X18802D1*
X34005D2*
X41756D1*
X6804Y22021D2*
X8802D1*
X15255D2*
X18802D1*
X34255D2*
X41756D1*
X6804Y21773D2*
X8220D1*
X15473D2*
X17720D1*
X18587D2*
X18723D1*
X24587D2*
X25412D1*
X34821D2*
X34985D1*
X35821D2*
X35985D1*
X36821D2*
X36985D1*
X37821D2*
X37985D1*
X38821D2*
X38985D1*
X39821D2*
X39985D1*
X40821D2*
X41756D1*
X6804Y21524D2*
X8084D1*
X15505D2*
X17584D1*
X24723D2*
X25291D1*
X40966D2*
X41756D1*
X6804Y21275D2*
X8080D1*
X15505D2*
X15666D1*
X16641D2*
X17580D1*
X24727D2*
X25287D1*
X40981D2*
X41756D1*
X6804Y21026D2*
X8201D1*
X16766D2*
X17701D1*
X24606D2*
X25392D1*
X40868D2*
X41756D1*
X7891Y20778D2*
X8685D1*
X17391D2*
X19935D1*
X23505D2*
X25416D1*
X26391D2*
X26916D1*
X40755D2*
X41756D1*
X8212Y20529D2*
X8435D1*
X14778D2*
X15154D1*
X17516D2*
X19685D1*
X22653D2*
X22802D1*
X23505D2*
X25291D1*
X26516D2*
X26916D1*
X40735D2*
X41756D1*
X13782Y20280D2*
X15302D1*
X16005D2*
X16283D1*
X17524D2*
X19439D1*
X20407D2*
X22685D1*
X23622D2*
X25283D1*
X26524D2*
X26916D1*
X40532D2*
X41756D1*
X13532Y20032D2*
X15302D1*
X16005D2*
X16388D1*
X17419D2*
X18752D1*
X20157D2*
X22677D1*
X23630D2*
X25388D1*
X26419D2*
X26865D1*
X40282D2*
X41756D1*
X13505Y19783D2*
X15302D1*
X16005D2*
X16420D1*
X17384D2*
X17884D1*
X18423D2*
X18666D1*
X20005D2*
X22826D1*
X23481D2*
X25845D1*
X25962D2*
X26619D1*
X40255D2*
X41756D1*
X13505Y19534D2*
X15302D1*
X16005D2*
X16291D1*
X17513D2*
X17689D1*
X20005D2*
X26369D1*
X40255D2*
X41756D1*
X13505Y19286D2*
X15302D1*
X17524D2*
X17673D1*
X18634D2*
X18802D1*
X20005D2*
X26119D1*
X40255D2*
X41756D1*
X13505Y19037D2*
X15302D1*
X17423D2*
X17802D1*
X18505D2*
X18802D1*
X20005D2*
X25881D1*
X40255D2*
X41756D1*
X6804Y18788D2*
X7291D1*
X14071D2*
X14235D1*
X15071D2*
X15302D1*
X17011D2*
X17568D1*
X20571D2*
X20735D1*
X21571D2*
X21735D1*
X22571D2*
X22735D1*
X23571D2*
X23735D1*
X24571D2*
X25791D1*
X40255D2*
X41756D1*
X6804Y18540D2*
X7615D1*
X16673D2*
X17568D1*
X24716D2*
X25791D1*
X40255D2*
X41756D1*
X6804Y18291D2*
X7615D1*
X16567D2*
X17568D1*
X24731D2*
X25791D1*
X40255D2*
X41756D1*
X6804Y18042D2*
X7615D1*
X15118D2*
X15302D1*
X16567D2*
X17568D1*
X24618D2*
X25791D1*
X40255D2*
X41756D1*
X6804Y17794D2*
X7615D1*
X14548D2*
X15302D1*
X16567D2*
X18666D1*
X21505D2*
X25791D1*
X40255D2*
X41756D1*
X6804Y17545D2*
X7615D1*
X14641D2*
X15302D1*
X16567D2*
X18451D1*
X21489D2*
X25791D1*
X40255D2*
X41756D1*
X6804Y17296D2*
X7615D1*
X14591D2*
X15302D1*
X16567D2*
X18306D1*
X21298D2*
X25791D1*
X40255D2*
X41756D1*
X6804Y17047D2*
X7615D1*
X14505D2*
X15302D1*
X16567D2*
X18302D1*
X21048D2*
X25791D1*
X40255D2*
X41756D1*
X6804Y16799D2*
X7677D1*
X15059D2*
X15302D1*
X16567D2*
X17748D1*
X21559D2*
X21750D1*
X22559D2*
X22750D1*
X23559D2*
X23750D1*
X24559D2*
X25791D1*
X40255D2*
X41756D1*
X6804Y16550D2*
X7916D1*
X16567D2*
X17115D1*
X24716D2*
X25791D1*
X40255D2*
X41756D1*
X6804Y16301D2*
X8076D1*
X24731D2*
X25791D1*
X40255D2*
X41756D1*
X6804Y16053D2*
X8119D1*
X24630D2*
X25791D1*
X40255D2*
X41756D1*
X6804Y15804D2*
X6939D1*
X14427D2*
X14931D1*
X17528D2*
X18302D1*
X24493D2*
X25791D1*
X40802D2*
X41756D1*
X17434Y15555D2*
X18302D1*
X24306D2*
X25791D1*
X40962D2*
X41756D1*
X13934Y15307D2*
X14166D1*
X15763D2*
X15959D1*
X17364D2*
X18302D1*
X24059D2*
X25791D1*
X40981D2*
X41756D1*
X13684Y15058D2*
X14213D1*
X15634D2*
X16298D1*
X17509D2*
X18091D1*
X23809D2*
X25791D1*
X40884D2*
X41756D1*
X6804Y14809D2*
X6943D1*
X13434D2*
X14525D1*
X15591D2*
X16279D1*
X17528D2*
X17853D1*
X23559D2*
X25791D1*
X40255D2*
X41756D1*
X13188Y14561D2*
X14869D1*
X15841D2*
X16369D1*
X17438D2*
X17802D1*
X23610D2*
X25791D1*
X40255D2*
X41756D1*
X13005Y14312D2*
X15119D1*
X17114D2*
X17802D1*
X23638D2*
X25791D1*
X40255D2*
X41756D1*
X13005Y14063D2*
X15369D1*
X16759D2*
X17802D1*
X23513D2*
X25791D1*
X40255D2*
X41756D1*
X6804Y13815D2*
X7181D1*
X13040D2*
X13267D1*
X14040D2*
X14267D1*
X15040D2*
X15529D1*
X16778D2*
X17568D1*
X23540D2*
X23767D1*
X24540D2*
X25791D1*
X40282D2*
X41756D1*
X6804Y13566D2*
X7677D1*
X15208D2*
X15615D1*
X16692D2*
X17568D1*
X24708D2*
X25791D1*
X37192D2*
X37459D1*
X40391D2*
X41756D1*
X6804Y13317D2*
X7677D1*
X15235D2*
X15927D1*
X16380D2*
X17568D1*
X24735D2*
X25791D1*
X36942D2*
X37744D1*
X38063D2*
X38242D1*
X40352D2*
X41756D1*
X6804Y13068D2*
X7576D1*
X17102D2*
X17568D1*
X24638D2*
X25791D1*
X36696D2*
X38740D1*
X39067D2*
X39740D1*
X40067D2*
X41756D1*
X6804Y12820D2*
X7545D1*
X8513D2*
X9279D1*
X10528D2*
X15052D1*
X17255D2*
X18302D1*
X19005D2*
X19302D1*
X22005D2*
X25791D1*
X36446D2*
X41756D1*
X6804Y12571D2*
X7662D1*
X8395D2*
X9166D1*
X10641D2*
X15029D1*
X17278D2*
X18302D1*
X19005D2*
X19302D1*
X22005D2*
X25791D1*
X36196D2*
X41756D1*
X6804Y12322D2*
X9205D1*
X10602D2*
X13283D1*
X14024D2*
X15111D1*
X17196D2*
X18302D1*
X19005D2*
X19302D1*
X22005D2*
X25791D1*
X35950D2*
X41756D1*
X6804Y12074D2*
X9474D1*
X9833D2*
X9973D1*
X10333D2*
X11908D1*
X12649D2*
X13170D1*
X14138D2*
X15412D1*
X15895D2*
X16408D1*
X16899D2*
X17095D1*
X17462D2*
X18302D1*
X19005D2*
X19302D1*
X22462D2*
X25791D1*
X35700D2*
X41756D1*
X12763Y11825D2*
X13205D1*
X14325D2*
X16830D1*
X17727D2*
X18287D1*
X19020D2*
X19302D1*
X22727D2*
X25791D1*
X35602D2*
X36756D1*
X12731Y11576D2*
X13466D1*
X14575D2*
X16795D1*
X17763D2*
X18170D1*
X19138D2*
X19302D1*
X22763D2*
X25791D1*
X35638D2*
X36756D1*
X12630Y11328D2*
X13853D1*
X14821D2*
X16908D1*
X17649D2*
X18201D1*
X19106D2*
X19302D1*
X22649D2*
X25791D1*
X35524D2*
X36756D1*
X12630Y11079D2*
X14103D1*
X15071D2*
X16927D1*
X17630D2*
X18459D1*
X18848D2*
X19111D1*
X22446D2*
X25791D1*
X35321D2*
X36756D1*
X12630Y10830D2*
X14349D1*
X15321D2*
X16927D1*
X17630D2*
X18830D1*
X22727D2*
X23115D1*
X23442D2*
X25791D1*
X35571D2*
X36756D1*
X12630Y10582D2*
X14599D1*
X15563D2*
X15916D1*
X16641D2*
X16927D1*
X17630D2*
X18791D1*
X23727D2*
X25791D1*
X35817D2*
X36756D1*
X12630Y10333D2*
X14334D1*
X15630D2*
X15795D1*
X16763D2*
X16927D1*
X17630D2*
X18123D1*
X18434D2*
X18904D1*
X22653D2*
X22791D1*
X23766D2*
X25791D1*
X36067D2*
X36756D1*
X12630Y10084D2*
X13838D1*
X15630D2*
X15826D1*
X16731D2*
X16927D1*
X17630D2*
X17834D1*
X18723D2*
X18927D1*
X22630D2*
X22900D1*
X23657D2*
X25791D1*
X36317D2*
X36756D1*
X12630Y9836D2*
X13494D1*
X15630D2*
X15927D1*
X16630D2*
X16927D1*
X17630D2*
X17791D1*
X18766D2*
X18927D1*
X22630D2*
X22927D1*
X23630D2*
X25791D1*
X36559D2*
X36756D1*
X12630Y9587D2*
X13244D1*
X15630D2*
X15927D1*
X16630D2*
X16927D1*
X17630D2*
X17900D1*
X18657D2*
X18927D1*
X22630D2*
X22927D1*
X23630D2*
X25791D1*
X36630D2*
X36756D1*
X12630Y9338D2*
X12998D1*
X15630D2*
X15927D1*
X16630D2*
X16927D1*
X17630D2*
X17927D1*
X18630D2*
X18927D1*
X22630D2*
X22927D1*
X23630D2*
X25791D1*
X36630D2*
X36756D1*
X12630Y9089D2*
X12927D1*
X15630D2*
X15927D1*
X16630D2*
X16927D1*
X17630D2*
X17927D1*
X18630D2*
X18927D1*
X22630D2*
X22927D1*
X23630D2*
X25896D1*
X36630D2*
X36756D1*
X26508Y20362D2*
X26490Y20239D1*
X26447Y20121D1*
X26381Y20016D1*
X26295Y19925D1*
X26192Y19855D1*
X26076Y19807D1*
X25954Y19784D1*
X25829Y19787D1*
X25707Y19815D1*
X25594Y19867D1*
X25494Y19942D1*
X25411Y20035D1*
X25350Y20144D1*
X25312Y20262D1*
X25299Y20387D1*
X25311Y20511D1*
X25349Y20630D1*
X25411Y20738D1*
X25493Y20832D1*
X25564Y20887D1*
X25514Y20925D1*
X25427Y21015D1*
X25361Y21121D1*
X25318Y21238D1*
X25300Y21362D1*
X25308Y21486D1*
X25341Y21606D1*
X25398Y21717D1*
X25474Y21811D1*
X24517Y21812D1*
X24580Y21750D1*
X24650Y21647D1*
X24695Y21530D1*
X24714Y21387D1*
X24700Y21263D1*
X24659Y21145D1*
X24593Y21039D1*
X24505Y20951D1*
X24400Y20884D1*
X24282Y20842D1*
X24159Y20827D1*
X24034Y20840D1*
X23916Y20880D1*
X23810Y20945D1*
X23720Y21032D1*
X23655Y21133D1*
X23593Y21039D1*
X23475Y20932D1*
X23478Y20469D1*
X23527Y20414D1*
X23587Y20304D1*
X23618Y20137D1*
X23602Y20014D1*
X23553Y19899D1*
X23475Y19801D1*
X23375Y19728D1*
X23258Y19684D1*
X23134Y19673D1*
X23011Y19694D1*
X22899Y19748D1*
X22805Y19830D1*
X22736Y19934D1*
X22696Y20052D1*
X22690Y20176D1*
X22717Y20298D1*
X22776Y20408D1*
X22827Y20462D1*
X22829Y20727D1*
X22633Y20532D1*
X22530Y20463D1*
X22404Y20437D1*
X20540D1*
X19979Y19878D1*
X19978Y18922D1*
X20139Y18947D1*
X20263Y18936D1*
X20382Y18899D1*
X20489Y18835D1*
X20580Y18750D1*
X20654Y18636D1*
X20708Y18727D1*
X20794Y18817D1*
X20898Y18886D1*
X21015Y18930D1*
X21139Y18947D1*
X21263Y18936D1*
X21382Y18899D1*
X21489Y18835D1*
X21580Y18750D1*
X21654Y18636D1*
X21708Y18727D1*
X21794Y18817D1*
X21898Y18886D1*
X22015Y18930D1*
X22139Y18947D1*
X22263Y18936D1*
X22382Y18899D1*
X22489Y18835D1*
X22580Y18750D1*
X22654Y18636D1*
X22708Y18727D1*
X22794Y18817D1*
X22898Y18886D1*
X23015Y18930D1*
X23139Y18947D1*
X23263Y18936D1*
X23382Y18899D1*
X23489Y18835D1*
X23580Y18750D1*
X23654Y18636D1*
X23693Y18707D1*
X23776Y18800D1*
X23876Y18874D1*
X23991Y18923D1*
X24114Y18946D1*
X24238Y18941D1*
X24359Y18908D1*
X24469Y18850D1*
X24564Y18769D1*
X24638Y18668D1*
X24688Y18554D1*
X24712Y18432D1*
X24709Y18312D1*
X24678Y18191D1*
X24622Y18080D1*
X24543Y17984D1*
X24444Y17908D1*
X24330Y17855D1*
X24208Y17830D1*
X24084Y17831D1*
X23962Y17860D1*
X23851Y17916D1*
X23754Y17994D1*
X23677Y18093D1*
X23654Y18134D1*
X23593Y18039D1*
X23505Y17951D1*
X23400Y17884D1*
X23282Y17842D1*
X23159Y17827D1*
X23034Y17840D1*
X22916Y17880D1*
X22810Y17945D1*
X22720Y18032D1*
X22655Y18133D1*
X22593Y18039D1*
X22505Y17951D1*
X22400Y17884D1*
X22282Y17842D1*
X22159Y17827D1*
X22034Y17840D1*
X21916Y17880D1*
X21810Y17945D1*
X21720Y18032D1*
X21655Y18133D1*
X21593Y18039D1*
X21475Y17932D1*
X21478Y17637D1*
X21455Y17515D1*
X21383Y17407D1*
X20977Y17001D1*
X21015Y16930D1*
X21139Y16947D1*
X21263Y16936D1*
X21382Y16899D1*
X21489Y16835D1*
X21580Y16750D1*
X21604Y16714D1*
X21697Y16712D1*
X21794Y16817D1*
X21898Y16886D1*
X22015Y16930D1*
X22139Y16947D1*
X22263Y16936D1*
X22382Y16899D1*
X22489Y16835D1*
X22580Y16750D1*
X22654Y16636D1*
X22708Y16727D1*
X22794Y16817D1*
X22898Y16886D1*
X23015Y16930D1*
X23139Y16947D1*
X23263Y16936D1*
X23382Y16899D1*
X23489Y16835D1*
X23580Y16750D1*
X23654Y16636D1*
X23708Y16727D1*
X23794Y16817D1*
X23898Y16886D1*
X24015Y16930D1*
X24139Y16947D1*
X24263Y16936D1*
X24382Y16899D1*
X24489Y16835D1*
X24580Y16750D1*
X24650Y16647D1*
X24695Y16530D1*
X24714Y16387D1*
X24700Y16263D1*
X24659Y16145D1*
X24593Y16039D1*
X24475Y15932D1*
X24478Y15887D1*
X24455Y15765D1*
X24383Y15657D1*
X23464Y14737D1*
X23527Y14664D1*
X23587Y14554D1*
X23618Y14387D1*
X23602Y14264D1*
X23553Y14149D1*
X23478Y14054D1*
Y13844D1*
X23580Y13750D1*
X23654Y13636D1*
X23693Y13707D1*
X23776Y13800D1*
X23876Y13874D1*
X23991Y13923D1*
X24114Y13946D1*
X24238Y13941D1*
X24359Y13908D1*
X24469Y13850D1*
X24564Y13769D1*
X24638Y13668D1*
X24688Y13554D1*
X24712Y13432D1*
X24709Y13312D1*
X24678Y13191D1*
X24622Y13080D1*
X24543Y12984D1*
X24444Y12908D1*
X24330Y12855D1*
X24208Y12830D1*
X24084Y12831D1*
X23962Y12860D1*
X23851Y12916D1*
X23754Y12994D1*
X23677Y13093D1*
X23654Y13134D1*
X23593Y13039D1*
X23505Y12951D1*
X23400Y12884D1*
X23282Y12842D1*
X23159Y12827D1*
X23034Y12840D1*
X22916Y12880D1*
X22810Y12945D1*
X22720Y13032D1*
X22655Y13133D1*
X22593Y13039D1*
X22505Y12951D1*
X22400Y12884D1*
X22282Y12842D1*
X22159Y12827D1*
X22034Y12840D1*
X21979Y12858D1*
X21978Y11992D1*
X22093Y12063D1*
X22213Y12097D1*
X22337Y12098D1*
X22458Y12066D1*
X22565Y12003D1*
X22652Y11914D1*
X22712Y11804D1*
X22743Y11637D1*
X22727Y11514D1*
X22678Y11399D1*
X22600Y11301D1*
X22500Y11228D1*
X22383Y11184D1*
X22278Y11174D1*
X22196Y11095D1*
X22337Y11098D1*
X22458Y11066D1*
X22565Y11003D1*
X22652Y10914D1*
X22712Y10804D1*
X22743Y10637D1*
X22727Y10514D1*
X22678Y10399D1*
X22603Y10304D1*
Y9000D1*
X22843Y8998D1*
X22952Y9002D1*
X22954Y10055D1*
X22861Y10184D1*
X22821Y10302D1*
X22815Y10426D1*
X22842Y10548D1*
X22901Y10658D1*
X22986Y10749D1*
X23093Y10813D1*
X23213Y10847D1*
X23337Y10848D1*
X23458Y10816D1*
X23565Y10753D1*
X23652Y10664D1*
X23712Y10554D1*
X23743Y10387D1*
X23727Y10264D1*
X23678Y10149D1*
X23603Y10054D1*
Y9000D1*
X23843Y8998D1*
X24089Y9002D1*
X24843Y8998D1*
X25089Y9002D1*
X25843Y8998D1*
X26014Y9002D1*
X25930Y9080D1*
X25861Y9184D1*
X25821Y9302D1*
X25814Y9512D1*
Y18762D1*
X25830Y18886D1*
X25879Y19000D1*
X25950Y19091D1*
X26941Y20082D1*
X26939Y21000D1*
X26368Y20997D1*
X26314Y20942D1*
X26242Y20888D1*
X26331Y20815D1*
X26409Y20719D1*
X26467Y20608D1*
X26500Y20488D1*
X26508Y20362D1*
X17258Y12612D2*
X17240Y12489D1*
X17197Y12371D1*
X17131Y12266D1*
X17045Y12175D1*
X16942Y12105D1*
X16826Y12057D1*
X16704Y12034D1*
X16579Y12037D1*
X16457Y12065D1*
X16344Y12117D1*
X16244Y12192D1*
X16161Y12285D1*
X16153Y12297D1*
X16063Y12193D1*
X15963Y12118D1*
X15850Y12066D1*
X15729Y12038D1*
X15604Y12035D1*
X15481Y12058D1*
X15366Y12106D1*
X15263Y12176D1*
X15176Y12266D1*
X15110Y12372D1*
X15067Y12489D1*
X15049Y12612D1*
X15057Y12737D1*
X15090Y12857D1*
X15147Y12968D1*
X15225Y13065D1*
X15322Y13144D1*
X15433Y13201D1*
X15553Y13234D1*
X15678Y13242D1*
X15801Y13224D1*
X15918Y13182D1*
X16024Y13116D1*
X16115Y13029D1*
X16152Y12975D1*
X16225Y13064D1*
X16322Y13143D1*
X16433Y13200D1*
X16553Y13234D1*
X16678Y13241D1*
X16801Y13224D1*
X16918Y13181D1*
X17024Y13115D1*
X17115Y13029D1*
X17185Y12926D1*
X17233Y12811D1*
X17256Y12688D1*
X17258Y12612D1*
X16568Y19888D2*
X16513Y19925D1*
X16426Y20015D1*
X16360Y20121D1*
X16317Y20238D1*
X16308Y20304D1*
X16229Y20287D1*
X16104Y20284D1*
X15978Y20309D1*
Y19469D1*
X16178Y19491D1*
X16305Y19472D1*
X16330Y19583D1*
X16383Y19696D1*
X16457Y19796D1*
X16551Y19879D1*
X16563Y19887D1*
X7068Y19888D2*
X7013Y19925D1*
X6926Y20015D1*
X6860Y20121D1*
X6817Y20238D1*
X6799Y20362D1*
X6807Y20486D1*
X6840Y20606D1*
X6897Y20717D1*
X6975Y20814D1*
X7072Y20893D1*
X7183Y20950D1*
X7303Y20984D1*
X7428Y20991D1*
X7551Y20974D1*
X7668Y20931D1*
X7774Y20865D1*
X7876Y20763D1*
X8012Y20699D1*
X7975Y20724D1*
X8054Y20663D1*
X8307Y20410D1*
X8352Y20384D1*
X8424Y20492D1*
X8769Y20837D1*
X8659Y20827D1*
X8534Y20840D1*
X8416Y20880D1*
X8310Y20945D1*
X8220Y21032D1*
X8153Y21136D1*
X8110Y21253D1*
X8093Y21377D1*
X8105Y21501D1*
X8144Y21620D1*
X8208Y21727D1*
X8294Y21817D1*
X8398Y21886D1*
X8515Y21930D1*
X8639Y21947D1*
X8763Y21936D1*
X8826Y21916D1*
X8829Y22012D1*
X8852Y22134D1*
X8924Y22242D1*
X9674Y22992D1*
X9777Y23061D1*
X9904Y23087D1*
X12767D1*
X12924Y23242D1*
X13027Y23311D1*
X13154Y23337D1*
X18392D1*
X18549Y23492D1*
X18652Y23561D1*
X18779Y23587D1*
X20654D1*
X20775Y23563D1*
X20883Y23492D1*
X21411Y22964D1*
X24154Y22962D1*
X33154D1*
X33275Y22938D1*
X33383Y22867D1*
X34325Y21925D1*
X34389Y21931D1*
X34513Y21921D1*
X34632Y21883D1*
X34739Y21820D1*
X34830Y21734D1*
X34904Y21620D1*
X34958Y21711D1*
X35044Y21801D1*
X35148Y21870D1*
X35265Y21914D1*
X35389Y21931D1*
X35513Y21921D1*
X35632Y21883D1*
X35739Y21820D1*
X35830Y21734D1*
X35904Y21620D1*
X35958Y21711D1*
X36044Y21801D1*
X36148Y21870D1*
X36265Y21914D1*
X36389Y21931D1*
X36513Y21921D1*
X36632Y21883D1*
X36739Y21820D1*
X36830Y21734D1*
X36904Y21620D1*
X36958Y21711D1*
X37044Y21801D1*
X37148Y21870D1*
X37265Y21914D1*
X37389Y21931D1*
X37513Y21921D1*
X37632Y21883D1*
X37739Y21820D1*
X37830Y21734D1*
X37904Y21620D1*
X37958Y21711D1*
X38044Y21801D1*
X38148Y21870D1*
X38265Y21914D1*
X38389Y21931D1*
X38513Y21921D1*
X38632Y21883D1*
X38739Y21820D1*
X38830Y21734D1*
X38904Y21620D1*
X38958Y21711D1*
X39044Y21801D1*
X39148Y21870D1*
X39265Y21914D1*
X39389Y21931D1*
X39513Y21921D1*
X39632Y21883D1*
X39739Y21820D1*
X39830Y21734D1*
X39904Y21620D1*
X39958Y21711D1*
X40044Y21801D1*
X40148Y21870D1*
X40265Y21914D1*
X40389Y21931D1*
X40513Y21921D1*
X40632Y21883D1*
X40739Y21820D1*
X40830Y21734D1*
X40900Y21631D1*
X40945Y21514D1*
X40964Y21371D1*
X40950Y21247D1*
X40909Y21129D1*
X40843Y21024D1*
X40725Y20916D1*
X40728Y20637D1*
X40705Y20515D1*
X40633Y20407D1*
X40227Y20001D1*
X40228Y15922D1*
X40364Y15946D1*
X40488Y15941D1*
X40609Y15908D1*
X40719Y15850D1*
X40814Y15769D1*
X40888Y15668D1*
X40938Y15554D1*
X40962Y15432D1*
X40959Y15312D1*
X40928Y15191D1*
X40872Y15080D1*
X40793Y14984D1*
X40694Y14908D1*
X40580Y14855D1*
X40458Y14830D1*
X40334Y14831D1*
X40228Y14855D1*
Y13844D1*
X40277Y13789D1*
X40337Y13679D1*
X40368Y13512D1*
X40352Y13389D1*
X40303Y13274D1*
X40225Y13176D1*
X40125Y13103D1*
X40008Y13059D1*
X39884Y13048D1*
X39761Y13069D1*
X39649Y13123D1*
X39555Y13205D1*
X39486Y13309D1*
X39448Y13423D1*
X39357Y13427D1*
X39352Y13389D1*
X39303Y13274D1*
X39225Y13176D1*
X39125Y13103D1*
X39008Y13059D1*
X38884Y13048D1*
X38761Y13069D1*
X38649Y13123D1*
X38555Y13205D1*
X38488Y13305D1*
X38384Y13298D1*
X38261Y13319D1*
X38152Y13371D1*
X38008Y13309D1*
X37884Y13298D1*
X37761Y13319D1*
X37649Y13373D1*
X37555Y13455D1*
X37486Y13559D1*
X37446Y13677D1*
X37440Y13801D1*
X37451Y13851D1*
X35520Y11919D1*
X35587Y11804D1*
X35618Y11637D1*
X35602Y11514D1*
X35553Y11399D1*
X35475Y11301D1*
X35375Y11228D1*
X35258Y11184D1*
X35200Y11179D1*
X36386Y9989D1*
X36508Y9867D1*
X36578Y9764D1*
X36603Y9637D1*
Y9000D1*
X36780Y9002D1*
X36779Y11887D1*
X36840Y11992D1*
X36904Y12012D1*
X41779D1*
Y23586D1*
X41599Y23764D1*
X39654Y23762D1*
X35697D1*
X35609Y23728D1*
X35487Y23702D1*
X35362Y23698D1*
X35239Y23717D1*
X35111Y23763D1*
X22279Y23762D1*
X20447D1*
X20359Y23728D1*
X20237Y23702D1*
X20112Y23698D1*
X19989Y23717D1*
X19861Y23763D1*
X6954Y23762D1*
X6776Y23583D1*
X6779Y21637D1*
Y12012D1*
X11884D1*
X11986Y12124D1*
X12093Y12188D1*
X12213Y12222D1*
X12337Y12223D1*
X12458Y12191D1*
X12565Y12128D1*
X12652Y12039D1*
X12712Y11929D1*
X12743Y11762D1*
X12727Y11639D1*
X12678Y11524D1*
X12603Y11429D1*
Y9000D1*
X12843Y8998D1*
X12952Y9002D1*
X12954Y9137D1*
X12977Y9259D1*
X13049Y9367D1*
X13674Y9992D1*
X13777Y10061D1*
X13904Y10087D1*
X13947D1*
X13986Y10124D1*
X14093Y10188D1*
X14213Y10222D1*
X14318Y10223D1*
X14342Y10298D1*
X14401Y10408D1*
X14486Y10499D1*
X14593Y10563D1*
X14634Y10575D1*
X13659Y11547D1*
X13511Y11569D1*
X13399Y11623D1*
X13305Y11705D1*
X13236Y11809D1*
X13196Y11927D1*
X13190Y12051D1*
X13217Y12173D1*
X13276Y12283D1*
X13361Y12374D1*
X13468Y12438D1*
X13588Y12472D1*
X13712Y12473D1*
X13833Y12441D1*
X13940Y12378D1*
X14027Y12289D1*
X14087Y12179D1*
X14118Y12012D1*
X14237Y11888D1*
X15508Y10617D1*
X15578Y10514D1*
X15603Y10387D1*
Y9000D1*
X15843Y8998D1*
X15952Y9002D1*
X15954Y9930D1*
X15861Y10059D1*
X15821Y10177D1*
X15815Y10301D1*
X15842Y10423D1*
X15901Y10533D1*
X15986Y10624D1*
X16093Y10688D1*
X16213Y10722D1*
X16337Y10723D1*
X16458Y10691D1*
X16565Y10628D1*
X16652Y10539D1*
X16712Y10429D1*
X16743Y10262D1*
X16727Y10139D1*
X16678Y10024D1*
X16603Y9929D1*
Y9000D1*
X16843Y8998D1*
X16952Y9002D1*
X16954Y11305D1*
X16861Y11434D1*
X16821Y11552D1*
X16815Y11676D1*
X16842Y11798D1*
X16901Y11908D1*
X16986Y11999D1*
X17093Y12063D1*
X17213Y12097D1*
X17337Y12098D1*
X17458Y12066D1*
X17565Y12003D1*
X17652Y11914D1*
X17712Y11804D1*
X17743Y11637D1*
X17727Y11514D1*
X17678Y11399D1*
X17603Y11304D1*
Y9000D1*
X17843Y8998D1*
X17952Y9002D1*
X17954Y9555D1*
X17861Y9684D1*
X17821Y9802D1*
X17815Y9926D1*
X17842Y10048D1*
X17901Y10158D1*
X17986Y10249D1*
X18093Y10313D1*
X18213Y10347D1*
X18337Y10348D1*
X18458Y10316D1*
X18565Y10253D1*
X18652Y10164D1*
X18712Y10054D1*
X18743Y9887D1*
X18727Y9764D1*
X18678Y9649D1*
X18603Y9554D1*
Y9000D1*
X18843Y8998D1*
X18952Y9002D1*
X18954Y10305D1*
X18861Y10434D1*
X18821Y10552D1*
X18815Y10676D1*
X18842Y10798D1*
X18901Y10908D1*
X18986Y10999D1*
X19093Y11063D1*
X19213Y11097D1*
X19326Y11098D1*
X19329Y12012D1*
Y12852D1*
X19159Y12827D1*
X19034Y12840D1*
X18979Y12858D1*
X18978Y11844D1*
X19027Y11789D1*
X19087Y11679D1*
X19118Y11512D1*
X19102Y11389D1*
X19053Y11274D1*
X18975Y11176D1*
X18875Y11103D1*
X18758Y11059D1*
X18634Y11048D1*
X18511Y11069D1*
X18399Y11123D1*
X18305Y11205D1*
X18236Y11309D1*
X18196Y11427D1*
X18190Y11551D1*
X18217Y11673D1*
X18276Y11783D1*
X18327Y11837D1*
X18329Y12828D1*
X17593Y12827D1*
Y13947D1*
X17832D1*
X17829Y14637D1*
X17852Y14759D1*
X17924Y14867D1*
X18330Y15273D1*
X18329Y15852D1*
X18159Y15827D1*
X18034Y15840D1*
X17916Y15880D1*
X17810Y15945D1*
X17757Y15996D1*
X17627Y15935D1*
X17503Y15810D1*
X17458Y15644D1*
X17396Y15536D1*
X17313Y15442D1*
X17241Y15388D1*
X17330Y15315D1*
X17409Y15219D1*
X17466Y15108D1*
X17499Y14988D1*
X17507Y14862D1*
X17489Y14739D1*
X17446Y14621D1*
X17380Y14516D1*
X17294Y14425D1*
X17191Y14355D1*
X17076Y14307D1*
X16953Y14284D1*
X16828Y14287D1*
X16707Y14315D1*
X16593Y14367D1*
X16493Y14442D1*
X16411Y14535D1*
X16349Y14644D1*
X16311Y14762D1*
X16298Y14887D1*
X16311Y15011D1*
X16349Y15130D1*
X16410Y15238D1*
X16493Y15332D1*
X16563Y15387D1*
X16463Y15367D1*
X16350Y15315D1*
X16229Y15287D1*
X16104Y15284D1*
X15981Y15307D1*
X15866Y15355D1*
X15739Y15450D1*
X15743Y15387D1*
X15727Y15264D1*
X15678Y15149D1*
X15600Y15051D1*
X15500Y14978D1*
X15423Y14949D1*
X15925Y14450D1*
X16053Y14484D1*
X16178Y14491D1*
X16301Y14474D1*
X16418Y14431D1*
X16524Y14365D1*
X16615Y14279D1*
X16685Y14176D1*
X16733Y14061D1*
X16758Y13887D1*
X16746Y13763D1*
X16708Y13644D1*
X16646Y13536D1*
X16563Y13442D1*
X16463Y13367D1*
X16350Y13315D1*
X16229Y13287D1*
X16104Y13284D1*
X15981Y13307D1*
X15866Y13355D1*
X15763Y13425D1*
X15676Y13515D1*
X15610Y13621D1*
X15567Y13738D1*
X15549Y13862D1*
X15552Y13904D1*
X14658Y14798D1*
X14511Y14819D1*
X14399Y14873D1*
X14305Y14955D1*
X14236Y15059D1*
X14196Y15177D1*
X14190Y15301D1*
X14217Y15423D1*
X14276Y15533D1*
X14361Y15624D1*
X14468Y15688D1*
X14588Y15722D1*
X14712Y15723D1*
X14833Y15691D1*
X14901Y15658D1*
X14952Y15712D1*
X14977Y15884D1*
X14974Y15873D1*
X14900Y15884D1*
X14782Y15842D1*
X14659Y15827D1*
X14534Y15840D1*
X14442Y15871D1*
X14383Y15782D1*
X12977Y14376D1*
X12978Y13844D1*
X13080Y13750D1*
X13154Y13636D1*
X13208Y13727D1*
X13294Y13817D1*
X13398Y13886D1*
X13515Y13930D1*
X13639Y13947D1*
X13763Y13936D1*
X13882Y13899D1*
X13989Y13835D1*
X14080Y13750D1*
X14154Y13636D1*
X14193Y13707D1*
X14276Y13800D1*
X14376Y13874D1*
X14491Y13923D1*
X14614Y13946D1*
X14738Y13941D1*
X14859Y13908D1*
X14969Y13850D1*
X15064Y13769D1*
X15138Y13668D1*
X15188Y13554D1*
X15212Y13432D1*
X15209Y13312D1*
X15178Y13191D1*
X15122Y13080D1*
X15043Y12984D1*
X14944Y12908D1*
X14830Y12855D1*
X14708Y12830D1*
X14584Y12831D1*
X14462Y12860D1*
X14351Y12916D1*
X14254Y12994D1*
X14177Y13093D1*
X14154Y13134D1*
X14093Y13039D1*
X14005Y12951D1*
X13900Y12884D1*
X13782Y12842D1*
X13659Y12827D1*
X13534Y12840D1*
X13416Y12880D1*
X13310Y12945D1*
X13220Y13032D1*
X13155Y13133D1*
X13093Y13039D1*
X13005Y12951D1*
X12900Y12884D1*
X12782Y12842D1*
X12659Y12827D1*
X12534Y12840D1*
X12416Y12880D1*
X12310Y12945D1*
X12220Y13032D1*
X12155Y13133D1*
X12093Y13039D1*
X12005Y12951D1*
X11900Y12884D1*
X11782Y12842D1*
X11659Y12827D1*
X11534Y12840D1*
X11416Y12880D1*
X11310Y12945D1*
X11220Y13032D1*
X11155Y13133D1*
X11093Y13039D1*
X11005Y12951D1*
X10900Y12884D1*
X10782Y12842D1*
X10659Y12827D1*
X10534Y12840D1*
X10479Y12858D1*
X10587Y12679D1*
X10618Y12512D1*
X10602Y12389D1*
X10553Y12274D1*
X10475Y12176D1*
X10375Y12103D1*
X10258Y12059D1*
X10134Y12048D1*
X10011Y12069D1*
X9902Y12121D1*
X9758Y12059D1*
X9634Y12048D1*
X9511Y12069D1*
X9399Y12123D1*
X9305Y12205D1*
X9236Y12309D1*
X9196Y12427D1*
X9190Y12551D1*
X9217Y12673D1*
X9276Y12783D1*
X9327Y12837D1*
X9329Y12930D1*
X9214Y13041D1*
Y12827D1*
X8491D1*
X8477Y12764D1*
X8428Y12649D1*
X8350Y12551D1*
X8250Y12478D1*
X8133Y12434D1*
X8009Y12423D1*
X7886Y12444D1*
X7774Y12498D1*
X7680Y12580D1*
X7611Y12684D1*
X7571Y12802D1*
X7565Y12926D1*
X7592Y13048D1*
X7651Y13158D1*
X7702Y13212D1*
X7704Y13860D1*
X7576Y13807D1*
X7453Y13784D1*
X7328Y13787D1*
X7207Y13815D1*
X7093Y13867D1*
X6993Y13942D1*
X6911Y14035D1*
X6849Y14144D1*
X6811Y14262D1*
X6798Y14387D1*
X6811Y14511D1*
X6849Y14630D1*
X6910Y14738D1*
X6993Y14832D1*
X7063Y14887D1*
X7013Y14925D1*
X6926Y15015D1*
X6860Y15121D1*
X6817Y15238D1*
X6799Y15362D1*
X6807Y15486D1*
X6840Y15606D1*
X6897Y15717D1*
X6975Y15814D1*
X7072Y15893D1*
X7183Y15950D1*
X7303Y15984D1*
X7428Y15991D1*
X7551Y15974D1*
X7668Y15931D1*
X7774Y15865D1*
X7867Y15775D1*
X8181Y16091D1*
X8153Y16136D1*
X8110Y16253D1*
X8095Y16397D1*
X7753Y16736D1*
X7680Y16837D1*
X7643Y16960D1*
X7639Y17012D1*
Y18828D1*
X7503Y18790D1*
X7378Y18783D1*
X7255Y18801D1*
X7137Y18843D1*
X7031Y18909D1*
X6941Y18996D1*
X6871Y19099D1*
X6823Y19214D1*
X6800Y19337D1*
X6802Y19461D1*
X6830Y19583D1*
X6883Y19696D1*
X6957Y19796D1*
X7051Y19879D1*
X7063Y19887D1*
X17718Y18947D2*
X17832D1*
X17829Y19055D1*
X17736Y19184D1*
X17696Y19302D1*
X17690Y19426D1*
X17717Y19548D1*
X17776Y19658D1*
X17861Y19749D1*
X17968Y19813D1*
X18088Y19847D1*
X18212Y19848D1*
X18333Y19816D1*
X18440Y19753D1*
X18527Y19664D1*
X18587Y19554D1*
X18618Y19387D1*
X18602Y19264D1*
X18553Y19149D1*
X18478Y19054D1*
Y18946D1*
X18714Y18947D1*
Y18732D1*
X18794Y18817D1*
X18830Y18841D1*
X18829Y19430D1*
X18736Y19559D1*
X18696Y19677D1*
X18690Y19801D1*
X18717Y19923D1*
X18776Y20033D1*
X18861Y20124D1*
X18968Y20188D1*
X19088Y20222D1*
X19212Y20223D1*
X19333Y20191D1*
X19370Y20169D1*
X19424Y20242D1*
X20023Y20841D1*
X19916Y20880D1*
X19810Y20945D1*
X19720Y21032D1*
X19655Y21133D1*
X19593Y21039D1*
X19505Y20951D1*
X19400Y20884D1*
X19282Y20842D1*
X19159Y20827D1*
X19034Y20840D1*
X18916Y20880D1*
X18810Y20945D1*
X18720Y21032D1*
X18655Y21133D1*
X18593Y21039D1*
X18505Y20951D1*
X18400Y20884D1*
X18282Y20842D1*
X18159Y20827D1*
X18034Y20840D1*
X17916Y20880D1*
X17810Y20945D1*
X17720Y21032D1*
X17653Y21136D1*
X17610Y21253D1*
X17593Y21377D1*
X17605Y21501D1*
X17644Y21620D1*
X17708Y21727D1*
X17794Y21817D1*
X17898Y21886D1*
X18015Y21930D1*
X18139Y21947D1*
X18263Y21936D1*
X18382Y21899D1*
X18489Y21835D1*
X18580Y21750D1*
X18654Y21636D1*
X18708Y21727D1*
X18794Y21817D1*
X18830Y21841D1*
X18829Y22305D1*
X18736Y22434D1*
X18732Y22445D1*
X18529Y22437D1*
X13991Y22433D1*
X13977Y22264D1*
X13928Y22149D1*
X13850Y22051D1*
X13750Y21978D1*
X13666Y21946D1*
X13777Y21970D1*
X13924Y22117D1*
X14027Y22186D1*
X14154Y22212D1*
X14904D1*
X15025Y22188D1*
X15133Y22117D1*
X15383Y21867D1*
X15453Y21764D1*
X15478Y21637D1*
Y21149D1*
X15574Y21050D1*
X15590Y21106D1*
X15647Y21217D1*
X15725Y21314D1*
X15822Y21393D1*
X15933Y21450D1*
X16053Y21484D1*
X16178Y21491D1*
X16301Y21474D1*
X16418Y21431D1*
X16524Y21365D1*
X16615Y21279D1*
X16685Y21176D1*
X16733Y21061D1*
X16754Y20970D1*
X16803Y20984D1*
X16928Y20991D1*
X17051Y20974D1*
X17168Y20931D1*
X17274Y20865D1*
X17365Y20779D1*
X17435Y20676D1*
X17483Y20561D1*
X17508Y20387D1*
X17496Y20263D1*
X17458Y20144D1*
X17396Y20036D1*
X17313Y19942D1*
X17241Y19888D1*
X17330Y19815D1*
X17409Y19719D1*
X17466Y19608D1*
X17499Y19488D1*
X17507Y19362D1*
X17489Y19239D1*
X17446Y19121D1*
X17380Y19016D1*
X17294Y18925D1*
X17191Y18855D1*
X17076Y18807D1*
X16953Y18784D1*
X16828Y18787D1*
X16752Y18801D1*
X16708Y18644D1*
X16646Y18536D1*
X16541Y18426D1*
X16543Y16375D1*
X16683Y16450D1*
X16803Y16484D1*
X16928Y16491D1*
X17062Y16470D1*
X17253Y16663D1*
X17354Y16736D1*
X17476Y16773D1*
X17529Y16777D1*
X17751D1*
X17794Y16817D1*
X17898Y16886D1*
X18015Y16930D1*
X18139Y16947D1*
X18263Y16936D1*
X18326Y16916D1*
X18329Y17262D1*
X18352Y17384D1*
X18424Y17492D1*
X18686Y17754D1*
X18717Y17923D1*
X18756Y17995D1*
X18714Y18041D1*
Y17913D1*
X18694Y17827D1*
X17593D1*
Y18947D1*
X17718D1*
X13475Y18915D2*
X13515Y18930D1*
X13639Y18947D1*
X13763Y18936D1*
X13882Y18899D1*
X13989Y18835D1*
X14080Y18750D1*
X14154Y18636D1*
X14193Y18707D1*
X14276Y18800D1*
X14376Y18874D1*
X14491Y18923D1*
X14614Y18946D1*
X14738Y18941D1*
X14859Y18908D1*
X14969Y18850D1*
X15064Y18769D1*
X15138Y18668D1*
X15188Y18554D1*
X15212Y18432D1*
X15209Y18312D1*
X15178Y18191D1*
X15122Y18080D1*
X15043Y17984D1*
X14944Y17908D1*
X14830Y17855D1*
X14708Y17830D1*
X14584Y17831D1*
X14460Y17861D1*
X14527Y17789D1*
X14587Y17679D1*
X14618Y17512D1*
X14602Y17389D1*
X14553Y17274D1*
X14478Y17179D1*
X14475Y16915D1*
X14515Y16930D1*
X14639Y16947D1*
X14763Y16936D1*
X14882Y16899D1*
X14989Y16835D1*
X15080Y16750D1*
X15150Y16647D1*
X15195Y16530D1*
X15214Y16387D1*
X15200Y16263D1*
X15159Y16145D1*
X15093Y16039D1*
X15005Y15951D1*
X14900Y15884D1*
X15074Y16017D1*
X15328Y16271D1*
X15329Y20375D1*
X14951Y20755D1*
X14883Y20657D1*
X14633Y20407D1*
X14530Y20338D1*
X14404Y20312D1*
X13790D1*
X13477Y20001D1*
X13478Y18922D1*
X25904Y20387D2*
D16*
Y19783D1*
X25299Y20387D2*
X26508D1*
X16654Y13241D2*
Y12033D1*
Y12637D2*
X17258D1*
X16903Y19387D2*
Y18783D1*
X16298Y19387D2*
X17507D1*
X7403D2*
Y18783D1*
X6798Y19387D2*
X7403D1*
X16903Y14887D2*
Y14283D1*
X16298Y14887D2*
X17507D1*
X7403Y14387D2*
Y13783D1*
X6798Y14387D2*
X7403D1*
X40404Y15947D2*
Y14827D1*
Y15387D2*
X40963D1*
X24154Y18947D2*
Y17827D1*
Y18387D2*
X24713D1*
X24154Y13947D2*
Y12827D1*
Y13387D2*
X24713D1*
X14654Y13947D2*
Y12827D1*
Y13387D2*
X15213D1*
X14654Y18947D2*
Y17827D1*
Y18387D2*
X15213D1*
D19*
X25904Y20387D3*
Y21387D3*
X16654Y12637D3*
X15654Y12638D3*
X16904Y20387D3*
X16903Y19387D3*
X7404Y20387D3*
X7403Y19387D3*
X16904Y15887D3*
X16903Y14887D3*
X7404Y15387D3*
X7403Y14387D3*
D20*
X36279Y7137D3*
X35279D3*
X34279D3*
X33279D3*
X32279D3*
X31279D3*
X30279D3*
X29279D3*
X28279D3*
X27279D3*
X26279D3*
X25279D3*
X24279D3*
X23279D3*
X22279D3*
X21279D3*
X20279D3*
X19279D3*
X18279D3*
X17279D3*
X16279D3*
X15279D3*
X14279D3*
X13279D3*
X12279D3*
D19*
X16154Y15887D3*
Y13887D3*
Y18887D3*
Y20887D3*
D21*
X27404Y15387D3*
D22*
X28404D3*
X29404D3*
X30404D3*
X31404D3*
X32404D3*
X33404D3*
X34404D3*
X35404D3*
X36404D3*
X37404D3*
X38404D3*
X39404D3*
X40404D3*
Y21371D3*
X39404D3*
X38404D3*
X37404D3*
X36404D3*
X35404D3*
X34404D3*
X33404D3*
X32404D3*
X31404D3*
X30404D3*
X29404D3*
X28404D3*
X27404D3*
D21*
X18154Y18387D3*
D22*
X19154D3*
X20154D3*
X21154D3*
X22154D3*
X23154D3*
X24154D3*
Y21387D3*
X23154D3*
X22154D3*
X21154D3*
X20154D3*
X19154D3*
X18154D3*
D21*
Y13387D3*
D22*
X19154D3*
X20154D3*
X21154D3*
X22154D3*
X23154D3*
X24154D3*
Y16387D3*
X23154D3*
X22154D3*
X21154D3*
X20154D3*
X19154D3*
X18154D3*
D21*
X8654Y13387D3*
D22*
X9654D3*
X10654D3*
X11654D3*
X12654D3*
X13654D3*
X14654D3*
Y16387D3*
X13654D3*
X12654D3*
X11654D3*
X10654D3*
X9654D3*
X8654D3*
D21*
Y18387D3*
D22*
X9654D3*
X10654D3*
X11654D3*
X12654D3*
X13654D3*
X14654D3*
Y21387D3*
X13654D3*
X12654D3*
X11654D3*
X10654D3*
X9654D3*
X8654D3*
G36*
X28779Y31512D2*
X29529D1*
Y31137D1*
X28779D1*
Y31512D1*
G37*
G36*
X29529Y31137D2*
X30279D1*
Y30762D1*
X29529D1*
Y31137D1*
G37*
G36*
X30279Y31512D2*
X31029D1*
Y31137D1*
X30279D1*
Y31512D1*
G37*
G36*
X28654Y30387D2*
X31154D1*
Y29262D1*
X28654D1*
Y30387D1*
G37*
G36*
X18779Y26512D2*
X20779D1*
Y26137D1*
X21529D1*
Y25887D1*
X22154D1*
Y25637D1*
X22904D1*
Y25262D1*
X23654D1*
Y24887D1*
X21529D1*
Y25262D1*
X20904D1*
Y25637D1*
X20154D1*
Y25887D1*
X19404D1*
Y26137D1*
X18779D1*
D1*
Y26512D1*
G37*
G36*
X25029D2*
X27029D1*
Y26137D1*
X27779D1*
Y25887D1*
X28404D1*
Y25637D1*
X29154D1*
Y25262D1*
X29904D1*
Y24887D1*
X27779D1*
Y25262D1*
X27154D1*
Y25637D1*
X26404D1*
Y25887D1*
X25654D1*
Y26137D1*
X25029D1*
D1*
Y26512D1*
G37*
M02*
